<?xml version="1.0" encoding="UTF-8"?>
<svg version="1.1" xmlns="http://www.w3.org/2000/svg" width="518" height="508">
<path d="M0 0 C170.94 0 341.88 0 518 0 C518 167.64 518 335.28 518 508 C347.06 508 176.12 508 0 508 C0 340.36 0 172.72 0 0 Z " fill="#FEFEFE" transform="translate(0,0)"/>
<path d="M0 0 C6.52983696 4.03146456 10.66573062 11.15799165 12.4375 18.5 C13.40171773 24.66697588 13.62050417 30.70177899 13.625 36.9375 C13.63724609 37.82759766 13.64949219 38.71769531 13.66210938 39.63476562 C13.68465925 49.92502722 11.85511324 60.48731712 4.73046875 68.39453125 C-0.67284616 73.23279362 -5.25276641 74.78150747 -12.5625 74.75 C-14.356875 74.75773437 -14.356875 74.75773437 -16.1875 74.765625 C-22.39656421 74.27694865 -25.73868403 71.94313177 -29.921875 67.55078125 C-36.80209518 58.95050602 -37.92598984 47.75327502 -37.8125 37.125 C-37.80500732 36.20033936 -37.79751465 35.27567871 -37.78979492 34.32299805 C-37.62581934 23.92108322 -36.69328093 14.26701673 -30.5625 5.5 C-22.63339179 -2.11937742 -10.32032489 -4.55780885 0 0 Z " fill="#FCF9FB" transform="translate(126.5625,187.5)"/>
<path d="M0 0 C4.96783501 2.94390223 8.45091432 6.29024296 10.3125 11.875 C11.11019522 18.29074871 10.52433786 22.86350599 6.7578125 28.1796875 C4.83950185 30.42981404 2.74711922 32.20554682 0.3125 33.875 C1.22 34.431875 2.1275 34.98875 3.0625 35.5625 C7.65332011 38.82904508 10.84517098 42.37251619 12.3125 47.875 C13.09800368 54.75410796 12.38263602 60.17680957 8.3125 65.875 C2.89634573 71.67802243 -3.34352842 73.51869671 -11.1640625 74.16015625 C-18.86794336 74.34986638 -25.76162124 74.48087672 -31.65234375 69.0703125 C-37.11245345 63.15240219 -39.18440457 58.51569782 -39.00390625 50.44140625 C-38.33221267 44.99322499 -36.09500346 41.14845552 -32.0625 37.5 C-31.27875 36.96375 -30.495 36.4275 -29.6875 35.875 C-29.0275 35.215 -28.3675 34.555 -27.6875 33.875 C-28.41066406 33.20404297 -28.41066406 33.20404297 -29.1484375 32.51953125 C-34.13462649 27.74703607 -36.69096068 24.53658761 -37 17.5 C-36.84452762 12.29167527 -35.75839002 8.09417597 -32.10546875 4.1796875 C-23.52324842 -3.56113868 -10.51125232 -4.92319198 0 0 Z " fill="#77197E" transform="translate(67.6875,188.125)"/>
<path d="M0 0 C1.27746094 -0.01675781 2.55492187 -0.03351563 3.87109375 -0.05078125 C10.11817899 0.56401127 15.33335732 3.68911521 19.5625 8.3125 C25.1790376 17.03098156 25.8841888 25.55548242 25.8125 35.6875 C25.82410156 37.31558594 25.82410156 37.31558594 25.8359375 38.9765625 C25.80925974 50.02115399 24.31468412 60.884286 16.66796875 69.4296875 C10.5697135 75.04987685 5.3141884 76.69787897 -2.91015625 76.5 C-9.04862346 76.04459594 -13.95487252 74.79512748 -18.4375 70.3125 C-20.94547651 66.85322205 -21.4375 65.69996624 -21.4375 61.3125 C-16.9825 60.8175 -16.9825 60.8175 -12.4375 60.3125 C-11.81875 61.281875 -11.2 62.25125 -10.5625 63.25 C-8.78071154 66.34085362 -8.78071154 66.34085362 -6.4375 67.3125 C-1.65766798 67.71274358 2.93296811 67.86723426 7.5 66.3125 C13.34065132 60.64883811 15.36420506 52.17072613 15.6875 44.25 C15.64625 43.610625 15.605 42.97125 15.5625 42.3125 C14.94375 42.9725 14.325 43.6325 13.6875 44.3125 C11.5625 46.3125 11.5625 46.3125 9.5625 46.3125 C9.2325 47.3025 8.9025 48.2925 8.5625 49.3125 C2.56387882 51.31204039 -5.0274733 51.56718158 -10.99609375 49.37109375 C-17.01472896 45.74170881 -20.7363885 40.76103267 -23.4375 34.3125 C-23.88120333 31.34348275 -23.90252539 28.43526525 -23.875 25.4375 C-23.89498047 24.67308594 -23.91496094 23.90867188 -23.93554688 23.12109375 C-23.92990413 16.47393498 -22.05172122 11.34195546 -17.69140625 6.2890625 C-17.13324219 5.84304687 -16.57507813 5.39703125 -16 4.9375 C-15.44441406 4.47601563 -14.88882813 4.01453125 -14.31640625 3.5390625 C-9.61145664 0.46764009 -5.58094366 0.01686086 0 0 Z " fill="#C02739" transform="translate(173.4375,185.6875)"/>
<path d="M0 0 C4.62 0 9.24 0 14 0 C16.65334881 6.95506527 19.30422936 13.91106445 21.95288086 20.86791992 C22.85325335 23.23178168 23.75428605 25.59539209 24.65600586 27.95874023 C25.95602553 31.36635667 27.25362586 34.77488612 28.55078125 38.18359375 C28.9508992 39.23083115 29.35101715 40.27806854 29.76325989 41.35704041 C31.98309515 47.19822469 34.06932927 53.05677443 36 59 C37.58112276 55.97298444 38.84725538 52.90876201 40.04711914 49.71240234 C40.44415543 48.65806 40.84119171 47.60371765 41.2502594 46.51742554 C41.88628334 44.81883896 41.88628334 44.81883896 42.53515625 43.0859375 C42.97387558 41.91995026 43.41259491 40.75396301 43.86460876 39.55264282 C45.02800253 36.46003452 46.18965151 33.36677897 47.35028076 30.27313232 C48.98866267 25.90668799 50.62929382 21.5410906 52.27110291 17.17593384 C53.14480829 14.85262542 54.01736569 12.52888492 54.88868713 10.2046814 C55.28257126 9.15664337 55.67645538 8.10860535 56.08227539 7.02880859 C56.42932022 6.10377533 56.77636505 5.17874207 57.13392639 4.22567749 C58 2 58 2 59 0 C63.29 0 67.58 0 72 0 C72 24.42 72 48.84 72 74 C69.03 74 66.06 74 63 74 C62.67 55.19 62.34 36.38 62 17 C60.02 22.28 58.04 27.56 56 33 C54.89500594 35.91923394 53.78890376 38.83779773 52.67578125 41.75390625 C52.26636543 42.82704323 52.26636543 42.82704323 51.84867859 43.92185974 C51.28537427 45.39763481 50.72180469 46.87330865 50.15795898 48.34887695 C49.30119877 50.59208944 48.44650218 52.836082 47.59179688 55.08007812 C47.0365841 56.5339022 46.48125011 57.98767999 45.92578125 59.44140625 C45.6757283 60.09879288 45.42567535 60.7561795 45.16804504 61.43348694 C43.54556739 65.67062585 41.8095451 69.84056186 40 74 C37.69 74 35.38 74 33 74 C30.22429371 67.88811431 27.64895939 61.72393106 25.21484375 55.46875 C24.87248184 54.59279175 24.53011993 53.7168335 24.17738342 52.81433105 C23.45957922 50.97607422 22.74283071 49.13740484 22.02709961 47.29833984 C20.93991922 44.50621312 19.84811404 41.71592627 18.75585938 38.92578125 C18.05440884 37.12771285 17.35322791 35.32953925 16.65234375 33.53125 C16.33039536 32.70911011 16.00844696 31.88697021 15.67674255 31.03991699 C15.36954788 30.24879517 15.06235321 29.45767334 14.74584961 28.64257812 C14.48033798 27.96134888 14.21482635 27.28011963 13.94126892 26.57824707 C12.54313443 22.74859108 11.28922632 18.86767897 10 15 C9.67 34.47 9.34 53.94 9 74 C6.03 74 3.06 74 0 74 C0 49.58 0 25.16 0 0 Z " fill="#A86ADC" transform="translate(399,187)"/>
<path d="M0 0 C3.96 0 7.92 0 12 0 C15.05957383 3.44948869 16.86764239 6.04497965 19 10 C20.17080315 11.85931803 21.35197243 13.71214545 22.54296875 15.55859375 C23.76043796 17.51659912 24.97520216 19.47628858 26.1875 21.4375 C27.500913 23.55102309 28.81472045 25.6643011 30.12890625 27.77734375 C30.77746582 28.82132324 31.42602539 29.86530273 32.09423828 30.94091797 C35.38918137 36.22987991 38.72235334 41.49453919 42.05541992 46.75952148 C42.50377197 47.46794189 42.95212402 48.1763623 43.4140625 48.90625 C43.98568115 49.80827148 43.98568115 49.80827148 44.56884766 50.72851562 C46.72221666 54.14628178 48.85903233 57.57445173 51 61 C51 40.87 51 20.74 51 0 C54.3 0 57.6 0 61 0 C61 24.75 61 49.5 61 75 C56.71 75 52.42 75 48 75 C47.28972656 73.69804687 46.57945312 72.39609375 45.84765625 71.0546875 C43.20587849 66.30190011 40.36525607 61.70556092 37.4375 57.125 C36.37751418 55.45708843 35.31762106 53.78911796 34.2578125 52.12109375 C33.71930664 51.27530762 33.18080078 50.42952148 32.62597656 49.55810547 C31.03423916 47.05386755 29.44926844 44.54550404 27.8671875 42.03515625 C27.35486572 41.22224121 26.84254395 40.40932617 26.31469727 39.57177734 C25.35925356 38.05530355 24.40399212 36.53871489 23.44897461 35.02197266 C19.00948014 27.98570298 14.49962326 20.99941395 10 14 C9.67 34.13 9.34 54.26 9 75 C6.03 75 3.06 75 0 75 C0 50.25 0 25.5 0 0 Z " fill="#2F5ABA" transform="translate(243,187)"/>
<path d="M0 0 C3.3 0 6.6 0 10 0 C10 10.56 10 21.12 10 32 C23.53 32 37.06 32 51 32 C51 21.77 51 11.54 51 1 C53.97 1 56.94 1 60 1 C60 25.09 60 49.18 60 74 C56.7 74 53.4 74 50 74 C50 62.78 50 51.56 50 40 C36.8 40 23.6 40 10 40 C10 51.22 10 62.44 10 74 C6.7 74 3.4 74 0 74 C0 49.58 0 25.16 0 0 Z " fill="#635DC9" transform="translate(321,187)"/>
<path d="M0 0 C6.52983696 4.03146456 10.66573062 11.15799165 12.4375 18.5 C13.40171773 24.66697588 13.62050417 30.70177899 13.625 36.9375 C13.63724609 37.82759766 13.64949219 38.71769531 13.66210938 39.63476562 C13.68465925 49.92502722 11.85511324 60.48731712 4.73046875 68.39453125 C-0.67284616 73.23279362 -5.25276641 74.78150747 -12.5625 74.75 C-14.356875 74.75773437 -14.356875 74.75773437 -16.1875 74.765625 C-22.39656421 74.27694865 -25.73868403 71.94313177 -29.921875 67.55078125 C-36.80209518 58.95050602 -37.92598984 47.75327502 -37.8125 37.125 C-37.80500732 36.20033936 -37.79751465 35.27567871 -37.78979492 34.32299805 C-37.62581934 23.92108322 -36.69328093 14.26701673 -30.5625 5.5 C-22.63339179 -2.11937742 -10.32032489 -4.55780885 0 0 Z M-21.625 8.6875 C-22.5840625 10.0796875 -22.5840625 10.0796875 -23.5625 11.5 C-24.119375 12.2425 -24.67625 12.985 -25.25 13.75 C-28.57825853 20.72349407 -28.92388131 28.19679197 -28.875 35.8125 C-28.86936035 36.73240723 -28.8637207 37.65231445 -28.85791016 38.60009766 C-28.68461431 48.33726506 -27.9554805 56.98215017 -20.96484375 64.29296875 C-17.62686705 67.16604619 -14.25175611 66.771608 -10.03515625 66.7109375 C-6.75166785 66.43082948 -5.03621741 65.68269183 -2.5625 63.5 C6.33405558 52.06157139 5.43854853 36.34047438 3.75 22.625 C2.81652584 17.2029054 1.28614044 12.55064091 -2.5625 8.5 C-8.10449054 4.85363585 -16.33755838 4.91075599 -21.625 8.6875 Z " fill="#9A1D5A" transform="translate(126.5625,187.5)"/>
<path d="M0 0 C4.80711821 2.09765158 7.21420861 4.96407576 9.30859375 9.65234375 C10.98018296 15.32819187 10.73131244 20.88304294 8.8125 26.4375 C6.10761899 30.26164212 3.45021241 32.51659586 -1 34 C-9.83829787 34.42765957 -9.83829787 34.42765957 -14 32 C-19.07920615 26.63055349 -20.47859675 21.82172787 -20.31640625 14.56640625 C-19.66384446 9.27340507 -17.27558621 5.5461651 -13.9375 1.5 C-9.35380475 -0.84061034 -5.03723404 -0.71113892 0 0 Z " fill="#FDF9FA" transform="translate(179,194)"/>
<path d="M0 0 C4.19881036 4.73711939 4.83403682 8.05868753 4.6875 14.27734375 C4.34127807 17.70169501 3.42183448 19.94456159 1.4375 22.75 C-4.00978709 26.69928314 -9.01848507 27.33798137 -15.5625 26.75 C-19.73119378 25.51989364 -21.97037163 24.35731115 -25 21.25 C-27.18741876 16.35018199 -27.36353247 12.03524364 -26.5625 6.75 C-25.17917589 3.48561367 -23.0624123 1.2499123 -20.5625 -1.25 C-14.26770381 -2.86405031 -5.3974784 -4.32328737 0 0 Z " fill="#FBF9FC" transform="translate(65.5625,228.25)"/>
<path d="M0 0 C4.38011269 1.94930547 7.25852103 4.49168529 9 9 C9.7240587 15.22502418 9.59256429 20.67768253 6 26 C3.95943261 28.4656856 3.13026076 28.95657975 0 30 C-4.8854142 30.39325316 -9.43339765 30.65275098 -14 28.75 C-17.72894375 25.48717422 -19.71438153 22.56240568 -20.2734375 17.546875 C-20.48543968 11.70866117 -20.15845842 7.97780708 -16.484375 3.33984375 C-11.73696602 -0.94531751 -6.0760952 -0.84962348 0 0 Z " fill="#F5F5F5" transform="translate(328,301)"/>
<path d="M0 0 C4.57972288 2.20808067 6.74874947 4.50393108 9 9 C9.3984375 11.9375 9.3984375 11.9375 9.375 15 C9.38273437 16.010625 9.39046875 17.02125 9.3984375 18.0625 C8.78039339 22.61906049 6.51543962 26.07046698 3 29 C-2.44903484 30.81634495 -8.67604003 30.96831666 -14 28.75 C-17.64708592 25.55879982 -19.72093678 22.65796279 -20.23828125 17.73046875 C-20.4079021 11.91872264 -19.99969908 8.54019896 -16 4 C-14.9790625 2.824375 -14.9790625 2.824375 -13.9375 1.625 C-9.39324094 -0.88884544 -5.07334788 -0.73753515 0 0 Z " fill="#F5F5F5" transform="translate(144,301)"/>
<path d="M0 0 C3.28958104 1.59711543 5.34433531 3.68867062 7 7 C7.4091665 11.88639223 7.59828088 16.45706511 5.8125 21.0625 C3.01890215 24.04875977 0.11031344 24.85803529 -3.90234375 25.37109375 C-13.10535253 25.57244658 -13.10535253 25.57244658 -16.6875 22.625 C-20.43787651 18.36781585 -20.38847724 15.3174134 -20.359375 9.7734375 C-19.80289254 5.47884463 -18.16828113 3.86654007 -15 1 C-10.56683206 -1.21658397 -4.81154851 -0.53721173 0 0 Z " fill="#FAF8FB" transform="translate(61,193)"/>
<path d="M0 0 C1.65 0 3.3 0 5 0 C6.94458008 2.203125 6.94458008 2.203125 8.76953125 5.25 C9.43017578 6.3328125 10.09082031 7.415625 10.77148438 8.53125 C11.45221758 9.68726769 12.13255106 10.84352085 12.8125 12 C13.51070476 13.15725619 14.21055633 14.31352053 14.91210938 15.46875 C16.62431716 18.3027491 18.31427425 21.15016929 20 24 C20.33 16.41 20.66 8.82 21 1 C21.99 1 22.98 1 24 1 C24 10.57 24 20.14 24 30 C19 30 19 30 17.47021484 28.51879883 C17.05465332 27.83841553 16.6390918 27.15803223 16.2109375 26.45703125 C15.74429687 25.71259766 15.27765625 24.96816406 14.796875 24.20117188 C14.32765625 23.41291016 13.8584375 22.62464844 13.375 21.8125 C12.89804687 21.04357422 12.42109375 20.27464844 11.9296875 19.48242188 C10.60086347 17.33231077 9.29598996 15.1700239 8 13 C7.01 11.35 6.02 9.7 5 8 C4.67 15.26 4.34 22.52 4 30 C2.68 30 1.36 30 0 30 C0 20.1 0 10.2 0 0 Z " fill="#141414" transform="translate(355,301)"/>
<path d="M0 0 C4.57972288 2.20808067 6.74874947 4.50393108 9 9 C9.3984375 11.9375 9.3984375 11.9375 9.375 15 C9.38273437 16.010625 9.39046875 17.02125 9.3984375 18.0625 C8.78039339 22.61906049 6.51543962 26.07046698 3 29 C-2.44903484 30.81634495 -8.67604003 30.96831666 -14 28.75 C-17.64708592 25.55879982 -19.72093678 22.65796279 -20.23828125 17.73046875 C-20.4079021 11.91872264 -19.99969908 8.54019896 -16 4 C-14.9790625 2.824375 -14.9790625 2.824375 -13.9375 1.625 C-9.39324094 -0.88884544 -5.07334788 -0.73753515 0 0 Z M-14 7 C-16.54591497 11.24615888 -16.56090307 15.1676043 -16 20 C-14.7530291 22.93038162 -13.77654345 24.41759241 -11.25 26.3125 C-6.91262545 27.63780889 -3.30459119 27.60880922 0.8125 25.6875 C3.22038518 24.01607792 3.22038518 24.01607792 5 21 C5.58190144 16.11807362 5.61701919 11.51169701 3.75 6.9375 C0.80732807 3.67954179 -1.05738855 3.10283034 -5.4375 2.625 C-9.62750939 3.06605362 -11.093893 4.01086137 -14 7 Z " fill="#121212" transform="translate(144,301)"/>
<path d="M0 0 C4.38011269 1.94930547 7.25852103 4.49168529 9 9 C9.7240587 15.22502418 9.59256429 20.67768253 6 26 C3.95943261 28.4656856 3.13026076 28.95657975 0 30 C-4.8854142 30.39325316 -9.43339765 30.65275098 -14 28.75 C-17.72894375 25.48717422 -19.71438153 22.56240568 -20.2734375 17.546875 C-20.48543968 11.70866117 -20.15845842 7.97780708 -16.484375 3.33984375 C-11.73696602 -0.94531751 -6.0760952 -0.84962348 0 0 Z M-15 8 C-16.72814239 11.45628479 -16.35633298 15.21396205 -16 19 C-14.81918428 22.24724324 -13.96888558 24.23873276 -11.25 26.375 C-6.88744851 27.58681986 -3.30945459 27.61107881 0.8125 25.6875 C3.53304071 23.58879717 4.85844963 21.94913247 5.37109375 18.51171875 C5.60445419 11.9721582 5.60445419 11.9721582 2.625 6.375 C-0.40625769 3.63243352 -1.21690735 3.09035684 -5.25 2.625 C-10.19272958 3.11927296 -11.53828301 4.53828301 -15 8 Z " fill="#101010" transform="translate(328,301)"/>
<path d="M0 0 C3.25 1.8125 3.25 1.8125 5 4 C5 4.99 5 5.98 5 7 C3.68 7 2.36 7 1 7 C0.5875 6.505 0.175 6.01 -0.25 5.5 C-3.19691444 2.97407334 -6.22388084 3.7602464 -10 4 C-10.99 4.495 -10.99 4.495 -12 5 C-12 6.65 -12 8.3 -12 10 C-8.06128306 11.52020654 -4.2745765 12.92797993 -0.1875 14 C4.58108108 15.49602544 4.58108108 15.49602544 6 18 C6.50268444 22.45234791 6.47687662 24.9099963 4.6875 29 C0.41199821 32.18176878 -3.85834141 31.68264959 -9 31 C-12.59075613 29.99407896 -15.32776052 28.67223948 -18 26 C-18 25.01 -18 24.02 -18 23 C-16.68 23 -15.36 23 -14 23 C-13.67 23.66 -13.34 24.32 -13 25 C-10.17283905 25.94238698 -8.36823877 26.13465647 -5.4375 26.125 C-4.25994141 26.12886719 -4.25994141 26.12886719 -3.05859375 26.1328125 C-0.93561023 26.12976366 -0.93561023 26.12976366 1 25 C1 23.35 1 21.7 1 20 C-2.44711059 18.01791141 -5.18906049 16.86823222 -9.125 16.625 C-13 16 -13 16 -15.5 13.8125 C-17.29967286 10.43811338 -17.7060807 8.76576372 -17 5 C-13.04779498 -1.49290825 -6.84833898 -1.04049349 0 0 Z " fill="#292929" transform="translate(415,301)"/>
<path d="M0 0 C2.5502469 1.4279275 3.33643528 2.50465292 5 5 C5 5.66 5 6.32 5 7 C0.25 6.25 0.25 6.25 -2 4 C-4.17537684 3.71957016 -4.17537684 3.71957016 -6.5625 3.8125 C-7.36816406 3.81894531 -8.17382812 3.82539063 -9.00390625 3.83203125 C-10.99879885 3.78369088 -10.99879885 3.78369088 -12 5 C-12.04063832 6.66617115 -12.042721 8.33388095 -12 10 C-9.62785338 10.99477116 -7.26899626 11.91910967 -4.8046875 12.66015625 C3.47733589 15.16116331 3.47733589 15.16116331 6 19 C6.5 22 6.5 22 6 25 C4.1329009 27.30275556 2.64352259 28.67823871 0 30 C-10.92756988 31.056533 -10.92756988 31.056533 -15.19140625 28.8828125 C-16.8125 27.5 -16.8125 27.5 -19 25 C-18.505 23.515 -18.505 23.515 -18 22 C-16.125 22.3125 -16.125 22.3125 -14 23 C-13.34 23.99 -12.68 24.98 -12 26 C-8.87442041 26.36530232 -8.87442041 26.36530232 -5.375 26.1875 C-4.18648437 26.16042969 -2.99796875 26.13335937 -1.7734375 26.10546875 C-0.40058594 26.05326172 -0.40058594 26.05326172 1 26 C1 24.02 1 22.04 1 20 C-2.93871694 18.47979346 -6.7254235 17.07202007 -10.8125 16 C-15.58108108 14.50397456 -15.58108108 14.50397456 -17 12 C-17.85988484 5.22840691 -17.85988484 5.22840691 -15.25 1.5 C-10.23439853 -0.81489298 -5.42232925 -0.8912392 0 0 Z " fill="#121212" transform="translate(102,301)"/>
<path d="M0 0 C1.32 0 2.64 0 4 0 C4.14592789 3.70791544 4.23427895 7.41508726 4.3125 11.125 C4.35439453 12.17171875 4.39628906 13.2184375 4.43945312 14.296875 C4.57759689 23.02756089 4.57759689 23.02756089 1.60546875 26.6796875 C-2.62936478 30.4510385 -5.68830681 30.39180901 -11.2265625 30.35546875 C-15.55436599 29.80077844 -17.14306829 28.23284378 -20 25 C-20.98043964 22.05868109 -21.11621202 20.17498335 -21.09765625 17.11328125 C-21.09443359 16.17548828 -21.09121094 15.23769531 -21.08789062 14.27148438 C-21.07532227 12.80678711 -21.07532227 12.80678711 -21.0625 11.3125 C-21.05798828 10.32443359 -21.05347656 9.33636719 -21.04882812 8.31835938 C-21.03704303 5.87884526 -21.02059011 3.43945311 -21 1 C-19.68 1 -18.36 1 -17 1 C-16.97812622 1.92280762 -16.97812622 1.92280762 -16.95581055 2.86425781 C-16.88119423 5.66012854 -16.7845802 8.45482287 -16.6875 11.25 C-16.66494141 12.21808594 -16.64238281 13.18617188 -16.61914062 14.18359375 C-16.58369141 15.11816406 -16.54824219 16.05273438 -16.51171875 17.015625 C-16.48553467 17.87446289 -16.45935059 18.73330078 -16.43237305 19.61816406 C-15.91532248 22.46646746 -14.95291686 23.88956565 -13 26 C-11.05943459 26.55438371 -11.05943459 26.55438371 -9 26.375 C-8.319375 26.36210937 -7.63875 26.34921875 -6.9375 26.3359375 C-4.68060065 26.07913353 -4.68060065 26.07913353 -2 24 C-1.04831317 21.14493951 -0.8099054 19.09062718 -0.68359375 16.11328125 C-0.64169922 15.17548828 -0.59980469 14.23769531 -0.55664062 13.27148438 C-0.51732422 12.29501953 -0.47800781 11.31855469 -0.4375 10.3125 C-0.39431641 9.32443359 -0.35113281 8.33636719 -0.30664062 7.31835938 C-0.20058346 4.87904454 -0.09852286 2.43962887 0 0 Z " fill="#161616" transform="translate(226,301)"/>
<path d="M0 0 C8.25 0 16.5 0 25 0 C25 1.32 25 2.64 25 4 C21.37 4 17.74 4 14 4 C14 12.91 14 21.82 14 31 C12.68 31 11.36 31 10 31 C10 22.09 10 13.18 10 4 C6.7 4 3.4 4 0 4 C0 2.68 0 1.36 0 0 Z " fill="#2E2E2E" transform="translate(245,301)"/>
<path d="M0 0 C1.32 0 2.64 0 4 0 C4 8.91 4 17.82 4 27 C8.95 27 13.9 27 19 27 C19 27.99 19 28.98 19 30 C12.73 30 6.46 30 0 30 C0 20.1 0 10.2 0 0 Z " fill="#0C0C0C" transform="translate(171,301)"/>
<path d="M0 0 C4.86272939 0.08295995 7.68448929 0.95222991 11.47265625 3.953125 C15.27630123 8.1670757 15.17206054 12.2913994 15.0703125 17.7421875 C14.65712254 22.06190076 13.02274921 24.91153361 10.375 28.25 C8.55609898 29.63236477 7.04793733 30.05207977 4.8125 30.4375 C4.8125 29.7775 4.8125 29.1175 4.8125 28.4375 C1.8425 28.4375 -1.1275 28.4375 -4.1875 28.4375 C-4.5175 27.7775 -4.8475 27.1175 -5.1875 26.4375 C-4.29998047 26.48970703 -4.29998047 26.48970703 -3.39453125 26.54296875 C1.53170277 26.71173044 4.81629636 26.68441546 8.8125 23.4375 C10.82489758 19.41270483 10.39853128 14.80343307 9.8125 10.4375 C8.47380086 6.92067152 6.95164157 4.5559755 3.8125 2.4375 C0.04965265 1.79229298 -3.41233269 1.95384867 -7.1875 2.4375 C-4.64190061 -0.10809939 -3.53805377 0.08296126 0 0 Z " fill="#212121" transform="translate(322.1875,300.5625)"/>
<path d="M0 0 C9.70994764 -0.62198953 9.70994764 -0.62198953 14.5 1.6875 C17.85095295 4.78713148 19.77597209 7.34834323 20.3984375 11.9375 C20.39070313 12.948125 20.38296875 13.95875 20.375 15 C20.38273437 16.010625 20.39046875 17.02125 20.3984375 18.0625 C19.78836314 22.56030313 17.54492775 26.1640578 14 29 C11.8125 29.6875 11.8125 29.6875 10 30 C10 29.34 10 28.68 10 28 C9.06027344 28.05220703 9.06027344 28.05220703 8.1015625 28.10546875 C7.28429687 28.13253906 6.46703125 28.15960938 5.625 28.1875 C4.81289062 28.22230469 4.00078125 28.25710938 3.1640625 28.29296875 C2.44992188 28.19628906 1.73578125 28.09960938 1 28 C0.34 27.01 -0.32 26.02 -1 25 C-0.01 25.33 0.98 25.66 2 26 C6.99942891 26.37032807 9.97242055 26.0799137 14 23 C15.2866645 20.426671 15.16824551 18.49776962 15.1875 15.625 C15.20167969 14.66851562 15.21585938 13.71203125 15.23046875 12.7265625 C14.91349673 8.9766223 13.59110675 6.82754946 11.4375 3.8125 C7.88222487 1.16883388 4.33494121 1.1852539 0 1 C0 0.67 0 0.34 0 0 Z " fill="#232323" transform="translate(133,301)"/>
<path d="M0 0 C2.5502469 1.4279275 3.33643528 2.50465292 5 5 C5 5.66 5 6.32 5 7 C0.25 6.25 0.25 6.25 -2 4 C-4.17537684 3.71957016 -4.17537684 3.71957016 -6.5625 3.8125 C-7.36816406 3.81894531 -8.17382812 3.82539063 -9.00390625 3.83203125 C-10.99879885 3.78369088 -10.99879885 3.78369088 -12 5 C-12.04063832 6.66617115 -12.042721 8.33388095 -12 10 C-8.07561214 11.66489182 -4.10899581 12.87204037 0 14 C-3.05263664 14.98120464 -4.94736336 14.98120464 -8 14 C-8 14.66 -8 15.32 -8 16 C-11.14839906 16.34982212 -12.62023779 16.24633224 -15.3125 14.5 C-17.36256084 11.46287283 -17.66165584 9.5185008 -17.42578125 5.90625 C-17 4 -17 4 -15.25 1.5 C-10.23439853 -0.81489298 -5.42232925 -0.8912392 0 0 Z " fill="#232323" transform="translate(102,301)"/>
<path d="M0 0 C1.32 0 2.64 0 4 0 C4 9.57 4 19.14 4 29 C2.68 29 1.36 29 0 29 C0 19.43 0 9.86 0 0 Z " fill="#0F0F0F" transform="translate(286,302)"/>
<path d="M0 0 C1.32 0 2.64 0 4 0 C4.47050781 0.64453125 4.94101562 1.2890625 5.42578125 1.953125 C6.84158256 4.23477153 6.84158256 4.23477153 9.48046875 4.609375 C10.82044922 4.67898438 10.82044922 4.67898438 12.1875 4.75 C13.08855469 4.80671875 13.98960937 4.8634375 14.91796875 4.921875 C15.60503906 4.94765625 16.29210937 4.9734375 17 5 C17 5.66 17 6.32 17 7 C6.12011967 7.62468212 6.12011967 7.62468212 1.75 5.1875 C0 3 0 3 0 0 Z " fill="#121212" transform="translate(397,324)"/>
<path d="M0 0 C1.875 0.3125 1.875 0.3125 4 1 C4.66 1.99 5.32 2.98 6 4 C8.6556728 4.58348752 8.6556728 4.58348752 11.625 4.6875 C12.62789062 4.75324219 13.63078125 4.81898438 14.6640625 4.88671875 C15.43492188 4.92410156 16.20578125 4.96148437 17 5 C17 5.33 17 5.66 17 6 C13.7 6 10.4 6 7 6 C7 6.66 7 7.32 7 8 C3.62496331 6.8141763 1.35277269 5.72426311 -1 3 C-0.67 2.01 -0.34 1.02 0 0 Z " fill="#383838" transform="translate(84,323)"/>
<path d="M0 0 C10.60591086 -0.76118977 10.60591086 -0.76118977 13.91015625 1.04296875 C15.25 2.375 15.25 2.375 17 5 C17 5.66 17 6.32 17 7 C14.625 6.6875 14.625 6.6875 12 6 C11.34 5.01 10.68 4.02 10 3 C10.33 2.34 10.66 1.68 11 1 C7.37 1 3.74 1 0 1 C0 0.67 0 0.34 0 0 Z " fill="#3A3A3A" transform="translate(90,301)"/>
<path d="M0 0 C4.76376184 -0.19055047 8.64899976 -0.07190488 13 2 C13.875 4.125 13.875 4.125 14 6 C12.68 6 11.36 6 10 6 C9.566875 5.525625 9.13375 5.05125 8.6875 4.5625 C6.11786375 2.18320718 3.38989679 2.31980158 0 2 C0 1.34 0 0.68 0 0 Z " fill="#101010" transform="translate(406,302)"/>
<path d="M0 0 C1.05445313 0.00386719 2.10890625 0.00773437 3.1953125 0.01171875 C5.875 0.3125 5.875 0.3125 7.875 2.3125 C4.245 1.9825 0.615 1.6525 -3.125 1.3125 C-3.455 2.3025 -3.785 3.2925 -4.125 4.3125 C-5.115 4.6425 -6.105 4.9725 -7.125 5.3125 C-8.115 4.6525 -9.105 3.9925 -10.125 3.3125 C-6.78262987 0.2526974 -4.47535909 -0.07147379 0 0 Z " fill="#464646" transform="translate(409.125,300.6875)"/>
<path d="M0 0 C-1.38188453 3.21043882 -2.92421903 5.04936365 -5.625 7.25 C-6.57246094 8.03117188 -6.57246094 8.03117188 -7.5390625 8.828125 C-8.02117188 9.21484375 -8.50328125 9.6015625 -9 10 C-7.6834994 5.81113445 -4.97532335 0 0 0 Z " fill="#7C3096" transform="translate(41,189)"/>
<path d="M0 0 C0.66 0.33 1.32 0.66 2 1 C-0.97 3.97 -3.94 6.94 -7 10 C-7 6.04435836 -5.59478606 4.89133304 -3 2 C-2.01 1.34 -1.02 0.68 0 0 Z " fill="#A2407D" transform="translate(102,188)"/>
<path d="M0 0 C-1.5830577 4.2742558 -4.50568404 6.26531794 -8 9 C-6.68994234 5.06982701 -4.75047804 0 0 0 Z " fill="#BE435F" transform="translate(160,190)"/>
<path d="M0 0 C-1.49097658 3.7952131 -3.75700849 5.61042731 -7 8 C-4.18918919 0 -4.18918919 0 0 0 Z " fill="#80379A" transform="translate(38,225)"/>
<path d="M0 0 C0.66 0.33 1.32 0.66 2 1 C0.02 3.31 -1.96 5.62 -4 8 C-4.33 7.34 -4.66 6.68 -5 6 C-3.35 4.02 -1.7 2.04 0 0 Z " fill="#E2D0E6" transform="translate(45,227)"/>
</svg>
