<?xml version="1.0" encoding="UTF-8"?>
<svg version="1.1" xmlns="http://www.w3.org/2000/svg" width="1080" height="1080">
<path d="M0 0 C356.4 0 712.8 0 1080 0 C1080 356.4 1080 712.8 1080 1080 C723.6 1080 367.2 1080 0 1080 C0 723.6 0 367.2 0 0 Z " fill="#FEFEFE" transform="translate(0,0)"/>
<path d="M0 0 C20.27010438 12.67984759 29.82483671 37.0379146 35.07836914 59.43261719 C35.51977947 61.49202558 35.92342333 63.55507464 36.3125 65.625 C36.46058105 66.39279785 36.60866211 67.1605957 36.76123047 67.95166016 C40.25703339 87.01864981 39.61556269 106.32690066 39.3125 125.625 C40.51072388 124.91380005 40.51072388 124.91380005 41.7331543 124.18823242 C42.79445557 123.56279541 43.85575684 122.9373584 44.94921875 122.29296875 C45.99553467 121.67446045 47.04185059 121.05595215 48.11987305 120.41870117 C70.83753463 107.65532581 100.35679989 104.74096426 125.6015625 110.52734375 C142.96337438 115.66278495 159.81263709 123.34842564 173.3125 135.625 C174.25351562 136.47320313 175.19453125 137.32140625 176.1640625 138.1953125 C195.95585651 156.66636505 209.72738255 182.53981334 211.51953125 209.77075195 C211.61486568 212.97513067 211.64155035 216.16926949 211.625 219.375 C211.62008545 220.51171143 211.6151709 221.64842285 211.61010742 222.81958008 C211.48598639 231.77348012 210.64661755 239.96892034 208.3125 248.625 C207.98378906 249.84703125 207.65507812 251.0690625 207.31640625 252.328125 C199.45435516 278.33546357 181.34000536 303.34023164 157.3125 316.625 C130.52339791 330.70963462 100.15653431 337.14659694 70.3125 328.625 C68.82556641 328.22474609 68.82556641 328.22474609 67.30859375 327.81640625 C39.23895525 319.4067276 15.47405855 299.64843238 1.15039062 274.2734375 C-6.99977481 259.00646094 -12.81985947 241.07172371 -11.6875 223.625 C-12.698125 223.686875 -13.70875 223.74875 -14.75 223.8125 C-23.93937992 223.37491048 -31.06366908 217.62461145 -37.1875 211.125 C-49.49969899 196.29439667 -55.68127712 177.18406041 -59.6875 158.625 C-59.9038208 157.63209961 -59.9038208 157.63209961 -60.12451172 156.61914062 C-62.47384276 145.74192289 -63.8345289 135.25348225 -63.92578125 124.125 C-63.9355751 123.13945633 -63.94536896 122.15391266 -63.95545959 121.13850403 C-64.27761296 80.35733599 -64.27761296 80.35733599 -59.6875 61.625 C-59.48382813 60.73538574 -59.28015625 59.84577148 -59.0703125 58.92919922 C-54.98751681 41.41665195 -48.33217938 22.80208693 -35.6875 9.625 C-35.12675781 8.97660156 -34.56601563 8.32820313 -33.98828125 7.66015625 C-25.01720059 -2.23103525 -12.39667233 -6.14580789 0 0 Z " fill="#160483" transform="translate(221.6875,385.375)"/>
<path d="M0 0 C1.75183594 -0.01160156 1.75183594 -0.01160156 3.5390625 -0.0234375 C15.2112816 0.00273339 24.22283083 1.99529599 34.625 7.25 C35.38683594 7.61996094 36.14867187 7.98992188 36.93359375 8.37109375 C53.38850803 16.84786777 64.01291924 30.80718871 71.625 47.25 C72.31142578 48.68472656 72.31142578 48.68472656 73.01171875 50.1484375 C76.02782206 57.87389511 76.00031931 65.6024287 76.0625 73.8125 C76.07796875 75.51647949 76.07796875 75.51647949 76.09375 77.25488281 C75.88952198 96.8550998 68.23106626 113.8740119 54.98828125 128.078125 C44.28620214 138.2646295 32.68085191 144.27063974 18.625 148.25 C17.7275708 148.51719849 17.7275708 148.51719849 16.81201172 148.78979492 C2.2599284 151.85193793 -16.0004506 150.8245191 -29.375 144.25 C-30.85033203 143.56357422 -30.85033203 143.56357422 -32.35546875 142.86328125 C-39.03611431 139.49992176 -44.75427565 135.15483175 -50.375 130.25 C-50.98988281 129.73050781 -51.60476563 129.21101562 -52.23828125 128.67578125 C-65.65062288 116.43509245 -73.62310106 97.12595312 -74.58984375 79.28515625 C-75.27129904 57.17935016 -67.8985706 37.84307457 -52.83862305 21.60302734 C-38.46272187 6.8137616 -20.34600053 -0.13385527 0 0 Z " fill="#FEFDFE" transform="translate(320.375,530.75)"/>
<path d="M0 0 C20.26747466 12.67820258 29.83084932 37.0403101 35.07836914 59.43481445 C35.51925319 61.49353807 35.92280151 63.55598706 36.3125 65.625 C36.46058105 66.38748047 36.60866211 67.14996094 36.76123047 67.93554688 C39.071603 80.4399097 39.853081 93.1869467 40.22473145 105.88299561 C40.28271605 107.57063806 40.36264652 109.25768536 40.46569824 110.94317627 C41.22578649 124.0340545 41.22578649 124.0340545 38.08657837 128.28512573 C34.58838258 131.71660745 30.49146797 134.11254355 26.3125 136.625 C7.01550201 152.52939501 -7.32171973 177.59621661 -9.99951172 202.53027344 C-10.66888696 209.55395487 -11.20813539 216.5859997 -11.6875 223.625 C-21.85943638 223.84271089 -28.22722566 219.76196862 -35.46875 212.94921875 C-49.15023604 198.42818697 -55.56839055 177.70701401 -59.6875 158.625 C-59.9038208 157.63209961 -59.9038208 157.63209961 -60.12451172 156.61914062 C-62.47384276 145.74192289 -63.8345289 135.25348225 -63.92578125 124.125 C-63.9355751 123.13945633 -63.94536896 122.15391266 -63.95545959 121.13850403 C-64.27761296 80.35733599 -64.27761296 80.35733599 -59.6875 61.625 C-59.48382813 60.73538574 -59.28015625 59.84577148 -59.0703125 58.92919922 C-54.98751681 41.41665195 -48.33217938 22.80208693 -35.6875 9.625 C-35.12675781 8.97660156 -34.56601563 8.32820313 -33.98828125 7.66015625 C-25.01720059 -2.23103525 -12.39667233 -6.14580789 0 0 Z " fill="#92155A" transform="translate(221.6875,385.375)"/>
<path d="M0 0 C14.23306089 10.18602298 24.80469948 24.28048524 28.5703125 41.59765625 C29.89840186 52.11370926 30.19606806 63.80939555 27 74 C26.68160156 75.02222656 26.36320313 76.04445313 26.03515625 77.09765625 C20.36314297 93.42617933 8.7738102 106.33784265 -6.4765625 114.30859375 C-14.84451022 118.32557974 -22.74688107 120.49404242 -32 121 C-31.78778809 121.97195313 -31.57557617 122.94390625 -31.35693359 123.9453125 C-29.08264324 135.05652718 -28.53303426 145.82405008 -28.60888672 157.14746094 C-28.62498436 159.99723141 -28.60893331 162.84558432 -28.58984375 165.6953125 C-28.57275368 179.56405537 -29.11272873 193.23291995 -35 206 C-36.8984375 205.73828125 -36.8984375 205.73828125 -39 205 C-44.43130204 195.85368737 -44.30661937 182.38150248 -44.265625 172.09375 C-44.26753845 171.00719116 -44.2694519 169.92063232 -44.27142334 168.80114746 C-44.27277386 166.52221442 -44.26915745 164.24327338 -44.26074219 161.96435547 C-44.2500267 158.50861053 -44.26067668 155.05338534 -44.2734375 151.59765625 C-44.2721157 149.36718637 -44.2695529 147.13671681 -44.265625 144.90625 C-44.26967346 143.89026733 -44.27372192 142.87428467 -44.27789307 141.82751465 C-44.23223878 134.72032427 -43.35329697 127.97386821 -42 121 C-43.216875 120.9175 -44.43375 120.835 -45.6875 120.75 C-62.8319587 118.73773959 -79.30574301 109.24533811 -90.5625 96.1875 C-92.08724215 93.86724021 -93.11185003 91.47630601 -94.1862793 88.92358398 C-94.9598433 87.09492789 -95.76427886 85.27942197 -96.5703125 83.46484375 C-97.08335937 82.30082031 -97.59640625 81.13679687 -98.125 79.9375 C-98.64320313 78.77089844 -99.16140625 77.60429688 -99.6953125 76.40234375 C-104.83860164 62.98975439 -104.27864635 43.30529294 -98.61572266 30.15405273 C-97.79355501 28.41168436 -96.89813193 26.70445482 -96 25 C-95.22269531 23.50339844 -95.22269531 23.50339844 -94.4296875 21.9765625 C-87.44825561 9.936122 -77.17896084 1.43911566 -65 -5 C-64.08734375 -5.52851563 -63.1746875 -6.05703125 -62.234375 -6.6015625 C-43.49071996 -15.76854133 -16.84075595 -11.11985209 0 0 Z " fill="#971858" transform="translate(499,441)"/>
<path d="M0 0 C0.85142578 -0.01611328 1.70285156 -0.03222656 2.58007812 -0.04882812 C14.1916105 -0.05767164 24.91321096 4.74101621 33.49609375 12.52734375 C43.41546942 22.99652316 47.49278841 34.62391154 47.33203125 48.78515625 C46.81668109 61.36248589 41.27008487 72.06803629 32.609375 81.12109375 C22.20132222 90.5387028 9.63152886 93.71920372 -4.109375 93.58984375 C-15.88467462 92.7079384 -25.97584327 86.99636286 -33.8125 78.3125 C-34.29332031 77.83554687 -34.77414062 77.35859375 -35.26953125 76.8671875 C-44.68157022 67.00241755 -46.36763864 54.47929125 -46.15234375 41.48828125 C-45.59320477 28.73016818 -39.0609515 19.07541008 -30 10.5625 C-21.17169059 3.17414785 -11.35257676 -0.042392 0 0 Z " fill="#FEFDFD" transform="translate(461.8125,451.6875)"/>
<path d="M0 0 C7.66547309 4.56666482 11.32316441 9.75512195 14.05859375 18.21875 C15.42717049 24.07606695 15.30588698 30.01521566 15.3125 36 C15.34923828 37.72669922 15.34923828 37.72669922 15.38671875 39.48828125 C15.42104516 49.63745617 13.58789707 59.73040353 6.9375 67.75 C1.69986607 72.92959921 -3.01402736 75.03684464 -10.375 75.125 C-17.19162629 74.99420694 -21.65906224 73.81230064 -26.73828125 69.2421875 C-35.96878367 59.39326432 -36.24855134 47.68071881 -36.3125 34.875 C-36.333125 33.85019531 -36.35375 32.82539063 -36.375 31.76953125 C-36.42527041 21.87882794 -34.52884172 12.53035769 -28.0625 4.75 C-20.56693893 -1.88703866 -9.48168566 -3.86835956 0 0 Z " fill="#FDFBFC" transform="translate(687.0625,478.25)"/>
<path d="M0 0 C4.35878783 2.73896803 8.013018 6.83853601 10.3125 11.4375 C11.10902963 18.19662288 10.72711555 23.26424467 6.6796875 28.84375 C5.03732585 30.75827444 3.54867127 32.24487532 1.3125 33.4375 C0.3225 33.4375 -0.6675 33.4375 -1.6875 33.4375 C-1.6875 34.0975 -1.6875 34.7575 -1.6875 35.4375 C-0.82125 35.458125 0.045 35.47875 0.9375 35.5 C6.20101695 36.96208804 8.74480669 40.79268407 11.4609375 45.375 C13.70454884 50.80906783 12.82724175 56.91847682 10.6875 62.25 C7.90598061 67.74519685 4.05071562 70.93490547 -1.625 73.25 C-9.91534462 75.67268517 -19.39488205 75.98135137 -27.3125 72.3125 C-33.09688546 68.91105074 -36.50266303 64.8406802 -38.6875 58.4375 C-39.62569694 51.83061837 -39.1370609 46.57211156 -35.19140625 41.09765625 C-32.90502644 38.57373048 -30.69632502 37.04220668 -27.6875 35.4375 C-27.0275 35.4375 -26.3675 35.4375 -25.6875 35.4375 C-25.6875 34.7775 -25.6875 34.1175 -25.6875 33.4375 C-26.43 33.210625 -27.1725 32.98375 -27.9375 32.75 C-32.3896714 30.62510001 -34.81396517 26.90825263 -36.6875 22.4375 C-37.36125822 17.25112859 -37.34675549 12.80672294 -35.0625 8.0625 C-26.3739192 -1.54066825 -12.38558403 -5.61447681 0 0 Z " fill="#75167D" transform="translate(629.6875,478.5625)"/>
<path d="M0 0 C6.611026 3.81257227 10.97600295 9.91910897 13.03125 17.1875 C14.58099022 23.20019163 14.84751821 28.91215964 14.76171875 35.09765625 C14.75229248 36.15017578 14.74286621 37.20269531 14.7331543 38.28710938 C14.50770107 49.87774076 12.9735238 60.24940997 4.71875 68.91015625 C-1.59081053 74.70436636 -7.92687672 75.69455634 -16.3515625 75.53125 C-22.2178066 74.86383301 -26.49835434 72.71797374 -30.2734375 68.15234375 C-32.38574785 64.96328466 -33.61328125 63.04287237 -33.61328125 59.16015625 C-29.15828125 58.66515625 -29.15828125 58.66515625 -24.61328125 58.16015625 C-23.37630208 59.95052083 -22.13932292 61.74088542 -20.90234375 63.53125 C-19.69167272 65.29756553 -19.69167272 65.29756553 -17.61328125 66.16015625 C-15.84557798 66.2825576 -14.07267663 66.33566778 -12.30078125 66.34765625 C-11.35589844 66.36183594 -10.41101563 66.37601563 -9.4375 66.390625 C-6.37893018 66.14103217 -4.30742722 65.63011197 -1.61328125 64.16015625 C-0.32012163 62.32387474 -0.32012163 62.32387474 0.38671875 60.16015625 C0.65613281 59.49757813 0.92554688 58.835 1.203125 58.15234375 C3.19385826 52.50324727 4.02529224 47.12992511 4.38671875 41.16015625 C3.49984375 41.94390625 2.61296875 42.72765625 1.69921875 43.53515625 C-3.81775193 48.41061871 -9.34505796 48.54256008 -16.44921875 48.40625 C-22.1332279 47.9641604 -25.20526053 46.5361765 -29.36328125 42.47265625 C-35.4736849 34.14395424 -35.51306631 25.07824158 -34.61328125 15.16015625 C-33.04179407 8.93033205 -28.92257071 4.62609573 -23.61328125 1.16015625 C-16.97969082 -2.21462489 -7.04802454 -2.2650602 0 0 Z " fill="#BF2336" transform="translate(746.61328125,477.83984375)"/>
<path d="M0 0 C4.62 0 9.24 0 14 0 C16.49366068 6.47248251 18.98375687 12.94632133 21.47070312 19.42138672 C22.31545165 21.61934499 23.16113641 23.81694368 24.0078125 26.01416016 C25.23169357 29.19076658 26.45208885 32.36869427 27.671875 35.546875 C28.04495789 36.5130072 28.41804077 37.4791394 28.8024292 38.47454834 C31.39938438 45.25463947 33.75437105 52.09587133 36 59 C40.97117227 47.44003013 45.33015743 35.65383411 49.75 23.875 C50.91789727 20.76605652 52.08640704 17.65734683 53.25616455 14.54910278 C53.97962248 12.62642578 54.70195225 10.70332382 55.42303467 8.77975464 C55.74717346 7.91770416 56.07131226 7.05565369 56.40527344 6.16748047 C56.68997498 5.40869598 56.97467651 4.6499115 57.26800537 3.86813354 C58 2 58 2 59 0 C63.29 0 67.58 0 72 0 C72 24.42 72 48.84 72 74 C69.03 74 66.06 74 63 74 C62.67 55.19 62.34 36.38 62 17 C60.040625 22.135625 58.08125 27.27125 56.0625 32.5625 C50.77651021 46.4020976 45.43522964 60.21819282 40 74 C37.69 74 35.38 74 33 74 C29.65366989 66.83672504 26.6023664 59.62523668 23.828125 52.22265625 C23.46023865 51.24888535 23.09235229 50.27511444 22.71331787 49.27183533 C21.94529048 47.23649733 21.17904991 45.20048424 20.41455078 43.16381836 C19.2431734 40.04432007 18.06537116 36.92730275 16.88671875 33.81054688 C16.13764404 31.82305864 15.38893294 29.83543331 14.640625 27.84765625 C14.28961731 26.91848892 13.93860962 25.98932159 13.57696533 25.03199768 C13.25282654 24.16687057 12.92868774 23.30174347 12.59472656 22.41040039 C12.31002502 21.65304092 12.02532349 20.89568146 11.73199463 20.1153717 C11.03917714 18.11321698 10.51384477 16.05537908 10 14 C9.67 33.8 9.34 53.6 9 74 C6.03 74 3.06 74 0 74 C0 49.58 0 25.16 0 0 Z " fill="#A869DC" transform="translate(961,478)"/>
<path d="M0 0 C3.96 0 7.92 0 12 0 C15.10415097 3.38130731 16.81322037 6.04297019 19 10 C20.36253646 12.19206678 21.75558457 14.36311207 23.14941406 16.53540039 C24.71756306 18.98445087 26.26552945 21.44523331 27.80859375 23.91015625 C29.91779531 27.27725124 32.03431994 30.63947539 34.16015625 33.99609375 C34.67811768 34.81408447 35.1960791 35.6320752 35.72973633 36.47485352 C36.69926592 38.00551763 37.66912112 39.53597558 38.6394043 41.06616211 C42.81969322 47.67586855 46.90000144 54.33750235 51 61 C51.33 40.87 51.66 20.74 52 0 C54.97 0 57.94 0 61 0 C61 24.42 61 48.84 61 74 C56.71 74 52.42 74 48 74 C44.61609599 70.24473094 42.71598863 67.54542104 40.4375 63.1875 C39.17141681 60.97087194 37.90447945 58.75473156 36.63671875 56.5390625 C36.02489746 55.43079102 35.41307617 54.32251953 34.78271484 53.18066406 C32.27056683 48.69856816 29.52815755 44.38279586 26.75 40.0625 C25.89024527 38.6994582 25.0308761 37.33617313 24.171875 35.97265625 C19.4848953 28.62471886 14.73470721 21.31727478 10 14 C9.67 33.8 9.34 53.6 9 74 C6.03 74 3.06 74 0 74 C0 49.58 0 25.16 0 0 Z " fill="#2956B9" transform="translate(805,478)"/>
<path d="M0 0 C3.3 0 6.6 0 10 0 C10 10.23 10 20.46 10 31 C23.2 31 36.4 31 50 31 C50 20.77 50 10.54 50 0 C53.3 0 56.6 0 60 0 C60 24.42 60 48.84 60 74 C56.7 74 53.4 74 50 74 C50 62.78 50 51.56 50 40 C36.8 40 23.6 40 10 40 C10 51.22 10 62.44 10 74 C6.7 74 3.4 74 0 74 C0 49.58 0 25.16 0 0 Z " fill="#655FC9" transform="translate(883,478)"/>
<path d="M0 0 C7.66547309 4.56666482 11.32316441 9.75512195 14.05859375 18.21875 C15.42717049 24.07606695 15.30588698 30.01521566 15.3125 36 C15.34923828 37.72669922 15.34923828 37.72669922 15.38671875 39.48828125 C15.42104516 49.63745617 13.58789707 59.73040353 6.9375 67.75 C1.69986607 72.92959921 -3.01402736 75.03684464 -10.375 75.125 C-17.19162629 74.99420694 -21.65906224 73.81230064 -26.73828125 69.2421875 C-35.96878367 59.39326432 -36.24855134 47.68071881 -36.3125 34.875 C-36.333125 33.85019531 -36.35375 32.82539063 -36.375 31.76953125 C-36.42527041 21.87882794 -34.52884172 12.53035769 -28.0625 4.75 C-20.56693893 -1.88703866 -9.48168566 -3.86835956 0 0 Z M-22.0625 10.75 C-26.71300227 18.15635546 -27.41263346 26.63697322 -27.3125 35.1875 C-27.30645752 36.01862305 -27.30041504 36.84974609 -27.29418945 37.70605469 C-27.19956227 43.56261685 -26.80619373 49.12412021 -25.0625 54.75 C-24.86785156 55.40097656 -24.67320312 56.05195312 -24.47265625 56.72265625 C-23.12115126 60.48927665 -21.14681906 63.44003456 -17.9375 65.87109375 C-14.11029948 67.665094 -10.16004944 67.36772102 -6.0625 66.75 C-1.4371728 64.94008936 0.54942976 62.03205699 2.9375 57.75 C5.6421462 50.81451438 5.26846889 43.73300694 5.25 36.375 C5.26611328 35.09882812 5.28222656 33.82265625 5.29882812 32.5078125 C5.30325538 23.93664828 5.13676889 16.4063073 -0.6875 9.75 C-1.47125 9.09 -2.255 8.43 -3.0625 7.75 C-3.3925 7.42 -3.7225 7.09 -4.0625 6.75 C-6.14073652 6.5709429 -8.22703717 6.48192129 -10.3125 6.4375 C-11.45203125 6.40011719 -12.5915625 6.36273438 -13.765625 6.32421875 C-17.71239925 6.83393249 -19.25667498 7.98934927 -22.0625 10.75 Z " fill="#9A1D5A" transform="translate(687.0625,478.25)"/>
<path d="M0 0 C5.51929935 2.39062675 9.37849242 5.53251324 12 11 C12.86909883 17.33078851 12.87691092 23.70155508 9 29 C4.17889335 33.71397095 0.18474162 35.71564807 -6.5 36.3125 C-12.93819309 35.73766133 -16.85145646 32.82128033 -21 28 C-24.21457809 23.12270911 -24.88452603 18.69475746 -24 13 C-20.12799395 2.04025405 -10.88704474 -1.41424846 0 0 Z " fill="#0498B3" transform="translate(145,592)"/>
<path d="M0 0 C4.76699597 2.08014369 7.22796095 4.92639137 9.3046875 9.5859375 C11.07844431 15.74426171 11.07794274 21.80561657 8.25 27.5625 C4.84830085 31.24767408 2.0848814 33.64156616 -3.05078125 34.23828125 C-8.56280683 34.41915946 -11.70056765 33.78759517 -16 30 C-20.27009598 24.11021245 -20.60673364 18.08979496 -20 11 C-18.58240718 6.82597668 -16.47202526 3.64838951 -12.9375 0.91796875 C-8.80005526 -1.04231253 -4.42828625 -0.6929509 0 0 Z " fill="#FDFAFB" transform="translate(741,485)"/>
<path d="M0 0 C4.42237838 1.70370315 7.22093255 3.92878225 10 7.75 C11.67681166 13.1996379 11.74483092 17.84826622 9.875 23.25 C7.0252053 27.4296989 3.89407029 30.36864324 -1 32 C-6.57727757 32.782602 -10.81993474 32.64929242 -15.5 29.3125 C-19.32920147 26.27581768 -20.73183117 23.14223237 -21.3359375 18.31640625 C-21.42036083 12.36456141 -21.23255853 8.56670789 -17 4 C-11.89326665 -0.73306993 -6.64591749 -1.0825503 0 0 Z " fill="#FF3434" transform="translate(310,367)"/>
<path d="M0 0 C1.80791016 -0.01160156 1.80791016 -0.01160156 3.65234375 -0.0234375 C8.33990099 0.5242496 10.87190955 2.34530015 14.375 5.375 C16.94896259 9.95093349 16.68038295 14.24355745 16.0625 19.375 C14.75450252 23.23015047 13.84220462 24.80971415 10.5625 27.1875 C5.04833921 29.80672637 -0.28657401 30.4217249 -6.19921875 28.7265625 C-10.02604708 27.07133546 -11.68077255 25.78415938 -13.9375 22.1875 C-15.51109172 16.18818158 -16.09862618 11.61431477 -13.1875 6 C-8.98367736 1.09554026 -6.5617545 -0.04201764 0 0 Z " fill="#FCFAFC" transform="translate(615.9375,516.625)"/>
<path d="M0 0 C3.36904501 2.40646072 4.8673733 4.08934249 6.625 7.875 C7.43902501 14.02134612 7.39402873 19.72399407 3.625 24.875 C-0.12460769 28.5284639 -3.29887008 29.20476542 -8.375 29.4375 C-12.22010052 29.30392331 -14.92542239 29.080521 -18 26.6875 C-22.30663324 21.58753959 -22.82272779 17.03994989 -22.69140625 10.53515625 C-22.11557166 5.69388024 -19.78851416 3.12221838 -16.25 0 C-10.82341342 -2.12344692 -5.4783667 -1.82612223 0 0 Z " fill="#F8F8F8" transform="translate(892.375,593.125)"/>
<path d="M0 0 C2.95423934 2.03983193 4.63117881 3.82385817 6.625 6.8125 C7.12109375 9.96875 7.12109375 9.96875 7.0625 13.3125 C7.06121094 14.4159375 7.05992187 15.519375 7.05859375 16.65625 C6.41607031 21.33335756 4.24174659 24.79854451 0.625 27.8125 C-4.79676354 29.61975451 -10.31943734 29.45962158 -15.75 27.75 C-19.93916659 24.65799609 -21.9609071 21.44494772 -22.7578125 16.37890625 C-23.03308582 10.35042045 -22.01085456 6.62755064 -18.375 1.8125 C-13.31335021 -2.80253363 -6.10417383 -2.14776487 0 0 Z " fill="#F7F7F7" transform="translate(708.375,593.1875)"/>
<path d="M0 0 C3.28958104 1.59711543 5.34433531 3.68867062 7 7 C7.50187235 11.38779823 8.00725149 15.98549703 5.98828125 20.0234375 C3.86239538 22.64089458 2.20868631 23.9304379 -1 25 C-12.42000803 26.15353616 -12.42000803 26.15353616 -16.6875 22.6875 C-20.28227382 18.50978989 -20.39042855 14.82578227 -20.359375 9.515625 C-19.77622918 5.43360426 -17.98140974 3.7684519 -15 1 C-10.56683206 -1.21658397 -4.81154851 -0.53721173 0 0 Z " fill="#FCFAFC" transform="translate(623,484)"/>
<path d="M0 0 C0.99 0.33 1.98 0.66 3 1 C3.9140625 3.87890625 3.9140625 3.87890625 4.625 7.5625 C4.86476563 8.76003906 5.10453125 9.95757813 5.3515625 11.19140625 C6.58958305 18.4629125 7.16705954 25.4440189 7.203125 32.80859375 C7.20882507 33.7335817 7.21452515 34.65856964 7.22039795 35.61158752 C7.22980061 37.56388219 7.23636298 39.51619239 7.24023438 41.46850586 C7.24986981 44.39792042 7.28090982 47.32661103 7.3125 50.25585938 C7.39283044 64.30312455 6.97011597 78.0393336 1 91 C0.67 91 0.34 91 0 91 C0 60.97 0 30.94 0 0 Z " fill="#A81944" transform="translate(463,556)"/>
<path d="M0 0 C0.33 0 0.66 0 1 0 C1.33 29.37 1.66 58.74 2 89 C1.01 89.495 1.01 89.495 0 90 C-4.00009013 79.09066329 -5.31115191 68.50213743 -5.23046875 56.91796875 C-5.23001053 55.81955154 -5.22955231 54.72113434 -5.2290802 53.58943176 C-5.22608345 51.28950914 -5.21827564 48.98958806 -5.20581055 46.68969727 C-5.18745622 43.17912585 -5.18530201 39.66881775 -5.18554688 36.15820312 C-5.18063391 33.91145606 -5.17480656 31.66471078 -5.16796875 29.41796875 C-5.16685593 28.37617966 -5.1657431 27.33439056 -5.16459656 26.2610321 C-5.07239688 12.07239688 -5.07239688 12.07239688 -3 10 C-2.63272554 8.50794753 -2.3050154 7.00601352 -2 5.5 C-1.11111111 1.11111111 -1.11111111 1.11111111 0 0 Z " fill="#821168" transform="translate(460,556)"/>
<path d="M0 0 C2.16015625 0.47265625 2.16015625 0.47265625 5.22265625 2.41015625 C7.83699914 6.54250469 8.06638076 9.70850455 7.16015625 14.47265625 C5.62606266 17.54084343 4.58487144 18.99675973 1.2890625 20.09765625 C-2.1910474 20.72920739 -4.33648898 20.67399816 -7.65234375 19.34765625 C-10.20945994 17.15584238 -11.55899844 15.60361146 -12.83984375 12.47265625 C-12.83984375 8.22492289 -12.23425733 6.05195119 -9.83984375 2.53515625 C-6.30253107 0.10325378 -4.21685058 -0.27455288 0 0 Z " fill="#8F56FF" transform="translate(482.83984375,647.52734375)"/>
<path d="M0 0 C1.65 0 3.3 0 5 0 C6.62158203 1.66479492 6.62158203 1.66479492 8.0078125 3.98046875 C8.51957031 4.81513672 9.03132812 5.64980469 9.55859375 6.50976562 C10.07550781 7.39341797 10.59242188 8.27707031 11.125 9.1875 C11.64964844 10.05181641 12.17429687 10.91613281 12.71484375 11.80664062 C14.16047986 14.19468508 15.58239279 16.59524853 17 19 C17.99 20.65 18.98 22.3 20 24 C20.33 16.41 20.66 8.82 21 1 C21.99 1 22.98 1 24 1 C24 10.57 24 20.14 24 30 C22.35 30 20.7 30 19 30 C17.1472168 27.98046875 17.1472168 27.98046875 15.44921875 25.1875 C14.83369141 24.19492187 14.21816406 23.20234375 13.58398438 22.1796875 C12.95814453 21.13039063 12.33230469 20.08109375 11.6875 19 C11.04232422 17.95070313 10.39714844 16.90140625 9.73242188 15.8203125 C8.138837 13.22335938 6.56731186 10.61289338 5 8 C4.67 15.26 4.34 22.52 4 30 C2.68 30 1.36 30 0 30 C0 20.1 0 10.2 0 0 Z " fill="#101010" transform="translate(917,592)"/>
<path d="M0 0 C3.36904501 2.40646072 4.8673733 4.08934249 6.625 7.875 C7.43902501 14.02134612 7.39402873 19.72399407 3.625 24.875 C-0.12460769 28.5284639 -3.29887008 29.20476542 -8.375 29.4375 C-12.22010052 29.30392331 -14.92542239 29.080521 -18 26.6875 C-22.30663324 21.58753959 -22.82272779 17.03994989 -22.69140625 10.53515625 C-22.11557166 5.69388024 -19.78851416 3.12221838 -16.25 0 C-10.82341342 -2.12344692 -5.4783667 -1.82612223 0 0 Z M-17.375 6.875 C-19.22769921 10.58039842 -18.83944489 14.83123313 -18.375 18.875 C-17.06382399 21.98826625 -15.46890848 24.32804576 -12.375 25.875 C-7.12731669 26.21911038 -3.55810828 26.4429453 0.625 22.875 C3.20789411 18.69317144 3.47209988 13.64727556 2.625 8.875 C0.90839762 5.80553627 -1.18330608 3.47084696 -4.375 1.875 C-10.76848263 1.13729047 -13.02364904 2.52364904 -17.375 6.875 Z " fill="#111111" transform="translate(892.375,593.125)"/>
<path d="M0 0 C2.95423934 2.03983193 4.63117881 3.82385817 6.625 6.8125 C7.12109375 9.96875 7.12109375 9.96875 7.0625 13.3125 C7.06121094 14.4159375 7.05992187 15.519375 7.05859375 16.65625 C6.41607031 21.33335756 4.24174659 24.79854451 0.625 27.8125 C-4.79676354 29.61975451 -10.31943734 29.45962158 -15.75 27.75 C-19.93916659 24.65799609 -21.9609071 21.44494772 -22.7578125 16.37890625 C-23.03308582 10.35042045 -22.01085456 6.62755064 -18.375 1.8125 C-13.31335021 -2.80253363 -6.10417383 -2.14776487 0 0 Z M-17.375 6.8125 C-18.3896239 8.6189655 -18.3896239 8.6189655 -18.375 10.8125 C-18.49875 12.09125 -18.6225 13.37 -18.75 14.6875 C-18.7253209 17.98833018 -18.09181707 19.69675269 -16 22.25 C-12.92201856 25.25469617 -12.31033034 25.74190903 -8.0625 26.0625 C-4.14867606 25.797156 -2.44307521 25.17930088 0.625 22.8125 C3.73042508 18.15436237 3.36807763 13.26418836 2.625 7.8125 C0.40936838 4.83888914 -1.11419585 3.44290207 -4.375 1.8125 C-10.74566166 1.07742366 -13.11591354 2.3505999 -17.375 6.8125 Z " fill="#151515" transform="translate(708.375,593.1875)"/>
<path d="M0 0 C1.65 0 3.3 0 5 0 C5.01981934 0.71655762 5.03963867 1.43311523 5.06005859 2.17138672 C5.15509519 5.4063063 5.26486019 8.64056094 5.375 11.875 C5.4059375 13.00292969 5.436875 14.13085938 5.46875 15.29296875 C5.50742187 16.36933594 5.54609375 17.44570313 5.5859375 18.5546875 C5.6173584 19.54968262 5.6487793 20.54467773 5.68115234 21.56982422 C5.77247083 24.17854517 5.77247083 24.17854517 8 26 C13.88336903 26.50966413 13.88336903 26.50966413 19 24 C19.95168683 21.14493951 20.1900946 19.09062718 20.31640625 16.11328125 C20.35830078 15.17548828 20.40019531 14.23769531 20.44335938 13.27148438 C20.48267578 12.29501953 20.52199219 11.31855469 20.5625 10.3125 C20.60568359 9.32443359 20.64886719 8.33636719 20.69335938 7.31835938 C20.79941654 4.87904454 20.90147714 2.43962887 21 0 C22.32 0 23.64 0 25 0 C25.14592789 3.70791544 25.23427895 7.41508726 25.3125 11.125 C25.35439453 12.17171875 25.39628906 13.2184375 25.43945312 14.296875 C25.57759689 23.02756089 25.57759689 23.02756089 22.60546875 26.6796875 C18.37063522 30.4510385 15.31169319 30.39180901 9.7734375 30.35546875 C5.44563401 29.80077844 3.85693171 28.23284378 1 25 C-0.00005304 21.99984088 -0.11575585 20.02576244 -0.09765625 16.89453125 C-0.09443359 15.91162109 -0.09121094 14.92871094 -0.08789062 13.91601562 C-0.07951172 12.89185547 -0.07113281 11.86769531 -0.0625 10.8125 C-0.05798828 9.77673828 -0.05347656 8.74097656 -0.04882812 7.67382812 C-0.0370401 5.11582734 -0.02058515 2.55794267 0 0 Z " fill="#272727" transform="translate(767,592)"/>
<path d="M0 0 C2.5502469 1.4279275 3.33643528 2.50465292 5 5 C5 5.66 5 6.32 5 7 C3.68 7 2.36 7 1 7 C0.27683594 6.26523437 0.27683594 6.26523437 -0.4609375 5.515625 C-1.91110189 3.78929292 -1.91110189 3.78929292 -4.2265625 3.671875 C-5.01804687 3.69765625 -5.80953125 3.7234375 -6.625 3.75 C-7.42164063 3.76546875 -8.21828125 3.7809375 -9.0390625 3.796875 C-11.00211257 3.79195019 -11.00211257 3.79195019 -12 5 C-12.04063832 6.66617115 -12.042721 8.33388095 -12 10 C-10.824375 10.37125 -10.824375 10.37125 -9.625 10.75 C-6.6492204 11.7761309 -3.69380079 12.82397535 -0.75 13.9375 C0.10078125 14.25589844 0.9515625 14.57429687 1.828125 14.90234375 C4 16 4 16 6 19 C6.375 21.9375 6.375 21.9375 6 25 C4.1329009 27.30275556 2.64352259 28.67823871 0 30 C-2.09948601 30.17471848 -4.20624408 30.26717852 -6.3125 30.3125 C-7.44300781 30.34988281 -8.57351563 30.38726563 -9.73828125 30.42578125 C-13.67536903 29.91183805 -15.30661163 28.88541231 -18 26 C-18 24.68 -18 23.36 -18 22 C-14.31621622 22.63513514 -14.31621622 22.63513514 -12.6796875 24.5234375 C-10.39506501 26.53178006 -8.93672736 26.36992262 -5.9375 26.3125 C-5.05964844 26.30863281 -4.18179688 26.30476562 -3.27734375 26.30078125 C-0.80337231 26.20899334 -0.80337231 26.20899334 1 24 C0.67958603 21.39719432 0.67958603 21.39719432 0 19 C-0.89203125 18.75765625 -1.7840625 18.5153125 -2.703125 18.265625 C-4.45882812 17.76289062 -4.45882812 17.76289062 -6.25 17.25 C-7.41015625 16.92515625 -8.5703125 16.6003125 -9.765625 16.265625 C-13.13789766 14.94604004 -14.79406773 13.84153988 -17 11 C-17.65373541 6.932313 -17.67547804 4.94084442 -15.25 1.5625 C-10.24881839 -0.84191423 -5.44239291 -0.89453696 0 0 Z " fill="#181818" transform="translate(664,592)"/>
<path d="M0 0 C3.125 1.25 3.125 1.25 5 3 C5.8125 5.1875 5.8125 5.1875 6 7 C4.68 7 3.36 7 2 7 C1.5875 6.505 1.175 6.01 0.75 5.5 C-2.19691444 2.97407334 -5.22388084 3.7602464 -9 4 C-9.99 4.495 -9.99 4.495 -11 5 C-11 6.65 -11 8.3 -11 10 C-9.95199219 10.32613281 -8.90398438 10.65226563 -7.82421875 10.98828125 C-6.44515825 11.42920535 -5.06626038 11.87063832 -3.6875 12.3125 C-2.99720703 12.52583984 -2.30691406 12.73917969 -1.59570312 12.95898438 C5.05184902 15.11060753 5.05184902 15.11060753 7 18 C7.40439513 21.70695534 7.5094482 24.07814135 5.6875 27.375 C2.47535339 30.46817822 -1.12732257 30.22015919 -5.375 30.3125 C-6.49648438 30.34988281 -7.61796875 30.38726563 -8.7734375 30.42578125 C-12.68764076 29.90925806 -14.31914528 28.86660683 -17 26 C-17 24.68 -17 23.36 -17 22 C-15.68 22 -14.36 22 -13 22 C-12.67 22.99 -12.34 23.98 -12 25 C-9.51245214 26.24377393 -7.77344699 26.13306235 -5 26.125 C-3.6696875 26.12886719 -3.6696875 26.12886719 -2.3125 26.1328125 C0.02676966 26.15127902 0.02676966 26.15127902 2 25 C2 23.35 2 21.7 2 20 C1.33613281 19.73445312 0.67226563 19.46890625 -0.01171875 19.1953125 C-2.67447917 18.13020833 -5.33723958 17.06510417 -8 16 C-9.34578125 15.47792969 -9.34578125 15.47792969 -10.71875 14.9453125 C-13.22139055 13.90825939 -14.47622542 13.24556254 -16 11 C-16.67678396 7.10849223 -16.30269678 5.48013973 -14.1875 2.125 C-9.54017094 -0.97321938 -5.43208291 -0.75037782 0 0 Z " fill="#151515" transform="translate(976,592)"/>
<path d="M0 0 C8.25 0 16.5 0 25 0 C25 1.32 25 2.64 25 4 C21.7 4 18.4 4 15 4 C15 12.58 15 21.16 15 30 C13.35 30 11.7 30 10 30 C10 21.42 10 12.84 10 4 C6.7 4 3.4 4 0 4 C0 2.68 0 1.36 0 0 Z " fill="#323232" transform="translate(807,592)"/>
<path d="M0 0 C6.2279863 9.34197945 4.34052623 25.06248546 4.31567383 35.92114258 C4.31251655 38.79742487 4.33604917 41.67267226 4.36132812 44.54882812 C4.39862294 56.02122881 3.46133826 66.79034104 1 78 C0.67 78 0.34 78 0 78 C0 52.26 0 26.52 0 0 Z " fill="#C42C3B" transform="translate(466,562)"/>
<path d="M0 0 C0.33 0 0.66 0 1 0 C1 23.43 1 46.86 1 71 C0.67 71 0.34 71 0 71 C-1.58091458 62.89936469 -2.28789931 55.16362056 -2.23046875 46.91796875 C-2.23001053 45.81955154 -2.22955231 44.72113434 -2.2290802 43.58943176 C-2.22608345 41.28950914 -2.21827564 38.98958806 -2.20581055 36.68969727 C-2.18745622 33.17912585 -2.18530201 29.66881775 -2.18554688 26.15820312 C-2.18063391 23.91145606 -2.17480656 21.66471078 -2.16796875 19.41796875 C-2.16685593 18.37617966 -2.1657431 17.33439056 -2.16459656 16.2610321 C-2.07239688 2.07239688 -2.07239688 2.07239688 0 0 Z " fill="#721681" transform="translate(457,566)"/>
<path d="M0 0 C1.32 0 2.64 0 4 0 C4 8.91 4 17.82 4 27 C8.95 27 13.9 27 19 27 C19 27.99 19 28.98 19 30 C12.73 30 6.46 30 0 30 C0 20.1 0 10.2 0 0 Z " fill="#060606" transform="translate(733,592)"/>
<path d="M0 0 C-1.15173355 2.46800047 -2.04783565 4.04783565 -4 6 C-5.46016832 9.79643762 -5.53378367 14.0006059 -5 18 C-3.36669017 21.34086102 -1.96953265 22.62312837 1.4921875 23.96875 C3.98166258 24.73040243 6.46596459 25.40517871 9 26 C9 26.66 9 27.32 9 28 C3.30025408 28.34198476 -1.18325317 28.47253841 -6 25 C-9.70588796 20.22135499 -10.69921016 16.34007685 -10.4609375 10.30078125 C-9.74336361 6.71899295 -7.82677762 5.16938747 -5 3 C-4.443125 2.401875 -3.88625 1.80375 -3.3125 1.1875 C-2 0 -2 0 0 0 Z " fill="#0E0E0E" transform="translate(696,594)"/>
<path d="M0 0 C1.32 0 2.64 0 4 0 C4.14592789 3.70791544 4.23427895 7.41508726 4.3125 11.125 C4.3753418 12.69507813 4.3753418 12.69507813 4.43945312 14.296875 C4.57760783 23.02825252 4.57760783 23.02825252 1.625 26.6875 C-0.74849686 28.77843771 -1.89177105 29.76976082 -5 30 C-5 29.34 -5 28.68 -5 28 C-6.65 28 -8.3 28 -10 28 C-10 27.67 -10 27.34 -10 27 C-8.88625 26.7525 -7.7725 26.505 -6.625 26.25 C-3.02268209 25.41250138 -3.02268209 25.41250138 -1.79931641 23.23339844 C-0.90312212 20.72931006 -0.68311078 18.67169477 -0.5859375 16.015625 C-0.54726563 15.08105469 -0.50859375 14.14648438 -0.46875 13.18359375 C-0.4378125 12.21550781 -0.406875 11.24742187 -0.375 10.25 C-0.33632813 9.26644531 -0.29765625 8.28289063 -0.2578125 7.26953125 C-0.16371574 4.84653963 -0.07807672 2.42355204 0 0 Z " fill="#121212" transform="translate(788,592)"/>
<path d="M0 0 C1.32 0 2.64 0 4 0 C4 9.9 4 19.8 4 30 C2.68 30 1.36 30 0 30 C0 20.1 0 10.2 0 0 Z " fill="#111111" transform="translate(848,592)"/>
<path d="M0 0 C1.9375 1.0625 1.9375 1.0625 3 3 C2.8125 6.625 2.8125 6.625 2 10 C-0.82883747 11.41441874 -2.87376745 11.31900332 -6 11 C-7.9375 9.375 -7.9375 9.375 -9 7 C-8.8125 3.8125 -8.8125 3.8125 -8 1 C-5.20129973 -0.39935013 -3.09501208 -0.25265405 0 0 Z " fill="#FF3838" transform="translate(518,563)"/>
<path d="M0 0 C1.77007714 -0.08114106 3.54122098 -0.13925505 5.3125 -0.1875 C6.29863281 -0.22230469 7.28476562 -0.25710938 8.30078125 -0.29296875 C11 0 11 0 12.85546875 1.32421875 C14 3 14 3 14 6 C12.68 6 11.36 6 10 6 C9.5875 5.525625 9.175 5.05125 8.75 4.5625 C5.90372748 2.02118525 2.73681419 2.30629625 -1 2 C-0.67 1.34 -0.34 0.68 0 0 Z " fill="#0C0C0C" transform="translate(968,593)"/>
<path d="M0 0 C10.16236162 -0.39852399 10.16236162 -0.39852399 14 2 C14.8125 4.125 14.8125 4.125 15 6 C13.68 6 12.36 6 11 6 C10 5 9 4 8 3 C5.72838745 2.42676193 5.72838745 2.42676193 3.3125 2.3125 C2.10013672 2.21388672 2.10013672 2.21388672 0.86328125 2.11328125 C0.24839844 2.07589844 -0.36648438 2.03851562 -1 2 C-0.67 1.34 -0.34 0.68 0 0 Z " fill="#080808" transform="translate(654,593)"/>
<path d="M0 0 C3.68020305 0.63451777 3.68020305 0.63451777 5.3125 2.5 C7.89757027 4.79784024 10.64796938 4.6837707 14 5 C14 5.33 14 5.66 14 6 C11.69 6 9.38 6 7 6 C7 6.66 7 7.32 7 8 C4.08482708 6.92598892 2.22189824 6.22189824 0 4 C0 2.68 0 1.36 0 0 Z " fill="#232323" transform="translate(646,614)"/>
<path d="M0 0 C-0.33 0.66 -0.66 1.32 -1 2 C-1.94875 1.938125 -2.8975 1.87625 -3.875 1.8125 C-5.421875 1.9053125 -5.421875 1.9053125 -7 2 C-7.66 2.99 -8.32 3.98 -9 5 C-9.33 3.35 -9.66 1.7 -10 0 C-6.30458414 -0.95024979 -3.69541586 -0.95024979 0 0 Z " fill="#C55871" transform="translate(723,537)"/>
<path d="M0 0 C0.99386719 0.02707031 1.98773437 0.05414062 3.01171875 0.08203125 C4.15060547 0.13423828 4.15060547 0.13423828 5.3125 0.1875 C5.3125 0.5175 5.3125 0.8475 5.3125 1.1875 C4.03375 1.31125 2.755 1.435 1.4375 1.5625 C-2.03540936 1.87792399 -2.03540936 1.87792399 -4.6875 4.1875 C-4.6875 3.5275 -4.6875 2.8675 -4.6875 2.1875 C-6.0075 2.5175 -7.3275 2.8475 -8.6875 3.1875 C-6.10291354 -0.17334451 -4.11082043 -0.14508778 0 0 Z " fill="#333333" transform="translate(970.6875,591.8125)"/>
</svg>
