<?xml version="1.0" encoding="UTF-8"?>
<svg version="1.1" xmlns="http://www.w3.org/2000/svg" width="523" height="523">
<path d="M0 0 C172.59 0 345.18 0 523 0 C523 172.59 523 345.18 523 523 C350.41 523 177.82 523 0 523 C0 350.41 0 177.82 0 0 Z " fill="#FEFEFE" transform="translate(0,0)"/>
<path d="M0 0 C3.74252339 1.90409085 5.75332092 3.72240302 8.5625 6.8125 C9.83166465 7.81461699 11.10267223 8.8144021 12.375 9.8125 C26.57509552 22.25423472 33.59501793 44.89733297 37.5625 62.8125 C37.75859863 63.67004883 37.95469727 64.52759766 38.15673828 65.41113281 C42.61256334 85.71920221 41.97455512 106.14793566 41.5625 126.8125 C42.9403064 125.99628174 42.9403064 125.99628174 44.34594727 125.16357422 C50.59351153 121.50143095 56.53340107 118.04672443 63.5 115.9375 C64.68464844 115.56882812 65.86929688 115.20015625 67.08984375 114.8203125 C68.23582031 114.48773438 69.38179687 114.15515625 70.5625 113.8125 C71.65691406 113.47992188 72.75132812 113.14734375 73.87890625 112.8046875 C105.09837343 104.39562635 135.01042292 111.3922246 162.5625 126.8125 C162.5625 127.4725 162.5625 128.1325 162.5625 128.8125 C163.24957031 129.03164062 163.93664062 129.25078125 164.64453125 129.4765625 C168.34057235 131.1687259 171.20620441 133.54628306 174.25 136.1875 C174.86431885 136.71843262 175.4786377 137.24936523 176.11157227 137.79638672 C181.95198791 142.9629961 186.83841785 148.59884239 191.5625 154.8125 C192.18511719 155.60914063 192.80773437 156.40578125 193.44921875 157.2265625 C201.60714747 168.18935211 207.09413461 180.65314202 210.5625 193.8125 C210.96239136 195.29472046 210.96239136 195.29472046 211.37036133 196.80688477 C213.34962041 204.66087941 214.03882668 211.97745109 213.9375 220.0625 C213.92807373 221.2390918 213.91864746 222.41568359 213.90893555 223.62792969 C213.38622851 253.99075278 201.40000399 281.52991016 179.5625 302.8125 C163.71986171 316.72122719 143.11285539 329.8775605 121.5625 330.8125 C121.5625 331.4725 121.5625 332.1325 121.5625 332.8125 C86.56766611 333.62684322 86.56766611 333.62684322 71.53076172 329.33911133 C69.35026145 328.75571526 67.15990465 328.32954867 64.9453125 327.89453125 C60.9577494 327.02380211 57.90691049 325.57292354 54.4375 323.375 C51.29675741 321.44071395 48.50214846 319.78879047 45.0625 318.4375 C22.84449255 308.12199654 5.29366462 283.72470419 -3.1953125 261.3203125 C-7.48988909 249.34003815 -9.95721772 237.60333062 -9.4375 224.8125 C-10.00597656 224.84730469 -10.57445312 224.88210938 -11.16015625 224.91796875 C-18.59241325 225.17853202 -24.18637899 223.52862372 -29.8515625 218.41796875 C-57.13864823 190.79483517 -61.65827759 147.7953488 -61.75 111 C-61.75261841 109.9962735 -61.75523682 108.992547 -61.75793457 107.95840454 C-61.76207895 93.1420883 -61.06280081 79.23784692 -57.4375 64.8125 C-57.10716154 63.33932557 -56.78025116 61.86537762 -56.45703125 60.390625 C-51.57669886 38.80771108 -42.79516165 15.1070759 -23.8125 2 C-16.19401912 -1.80924044 -8.23512906 -2.75548044 0 0 Z " fill="#170584" transform="translate(162.4375,94.1875)"/>
<path d="M0 0 C1.29099609 0.00128906 2.58199219 0.00257813 3.91210938 0.00390625 C13.96381191 0.09819007 13.96381191 0.09819007 17.9375 2.375 C19.70411975 2.72998796 21.47565942 3.06087055 23.25 3.375 C37.71155888 6.89791325 53.09009823 19.8481384 61.50390625 31.95703125 C63.50184993 35.32685996 65.33878559 38.76380501 67.125 42.25 C67.45854492 42.89799561 67.79208984 43.54599121 68.13574219 44.21362305 C72.92219564 53.91788027 74.47117761 62.69146813 74.375 73.5 C74.36364014 75.28470703 74.36364014 75.28470703 74.35205078 77.10546875 C73.97131924 97.53713489 66.71841587 114.20299927 52.5625 129.125 C48.41474742 133.07434073 43.72569078 136.25614977 38.9375 139.375 C38.35387695 139.77323975 37.77025391 140.17147949 37.16894531 140.58178711 C24.88550249 148.70298319 10.55576735 150.91601485 -3.9375 150.9375 C-5.03626465 150.93983643 -6.1350293 150.94217285 -7.26708984 150.94458008 C-13.33327524 150.81861097 -17.66414458 150.12655503 -23.0625 147.375 C-24.52907276 146.93479277 -26.00712007 146.52798139 -27.5 146.1875 C-28.675625 145.919375 -29.85125 145.65125 -31.0625 145.375 C-31.0625 144.715 -31.0625 144.055 -31.0625 143.375 C-31.990625 143.21 -32.91875 143.045 -33.875 142.875 C-39.73870805 141.22695171 -44.3402692 137.06641936 -49.0625 133.375 C-49.8875 132.76011719 -50.7125 132.14523437 -51.5625 131.51171875 C-65.14466764 119.90320985 -74.66347625 100.80715589 -76.26953125 83.09130859 C-77.56134954 60.48910224 -71.06174612 40.2728676 -55.9375 23.25 C-48.2048508 14.87026719 -38.79347435 8.31268168 -28.0625 4.375 C-26.69943726 3.86682739 -26.69943726 3.86682739 -25.30883789 3.34838867 C-16.72538105 0.41299718 -9.02680912 -0.1759973 0 0 Z " fill="#FDFDFE" transform="translate(265.0625,240.625)"/>
<path d="M0 0 C3.74252339 1.90409085 5.75332092 3.72240302 8.5625 6.8125 C9.83166465 7.81461699 11.10267223 8.8144021 12.375 9.8125 C26.57917151 22.25780599 33.58758986 44.89547812 37.5625 62.8125 C37.75859863 63.66473145 37.95469727 64.51696289 38.15673828 65.39501953 C41.10984163 78.76004571 42.19363616 92.34655727 42.59603882 106.00482178 C42.656419 107.775853 42.74013401 109.5462613 42.84854126 111.31500244 C43.63940065 125.00928028 43.63940065 125.00928028 40.22290039 129.62057495 C36.94902782 132.87131979 33.2548623 135.28770731 29.32096863 137.6618042 C10.63741212 149.88783409 -0.52430197 174.11630688 -6.4375 194.8125 C-6.67210937 195.62332031 -6.90671875 196.43414062 -7.1484375 197.26953125 C-9.30359405 206.18688191 -9.11059707 215.68313778 -9.4375 224.8125 C-10.8605255 224.84480285 -12.28376617 224.86770376 -13.70703125 224.88671875 C-14.49956299 224.90049561 -15.29209473 224.91427246 -16.10864258 224.9284668 C-23.35836913 224.56746249 -28.55052266 219.87760998 -33.2734375 214.86328125 C-57.45969679 186.70971065 -61.66142869 146.53125292 -61.75 111 C-61.75261841 109.9962735 -61.75523682 108.992547 -61.75793457 107.95840454 C-61.76207895 93.1420883 -61.06280081 79.23784692 -57.4375 64.8125 C-57.10716154 63.33932557 -56.78025116 61.86537762 -56.45703125 60.390625 C-51.57669886 38.80771108 -42.79516165 15.1070759 -23.8125 2 C-16.19401912 -1.80924044 -8.23512906 -2.75548044 0 0 Z " fill="#92155A" transform="translate(162.4375,94.1875)"/>
<path d="M0 0 C1.20245361 -0.00128906 2.40490723 -0.00257813 3.64379883 -0.00390625 C12.69272268 0.10344869 20.57980824 1.19221448 29.0625 4.375 C29.0625 5.035 29.0625 5.695 29.0625 6.375 C29.76761719 6.45621094 30.47273438 6.53742188 31.19921875 6.62109375 C42.8661536 9.6930152 53.47618268 22.64253172 59.4609375 32.5078125 C65.40148377 43.14283924 68.41826139 52.58744017 68.3125 64.75 C68.32023438 65.63171875 68.32796875 66.5134375 68.3359375 67.421875 C68.28893805 83.44868855 62.94297347 97.52916105 52.0625 109.375 C51.39605469 110.14457031 50.72960937 110.91414063 50.04296875 111.70703125 C39.58070185 123.1010028 24.48117984 130.34923509 9.08203125 131.296875 C8.08236328 131.33554687 8.08236328 131.33554687 7.0625 131.375 C7.5265625 132.86 7.5265625 132.86 8 134.375 C10.85968884 146.1991035 10.15966912 158.8536568 10.1875 170.9375 C10.19217285 172.22664307 10.1968457 173.51578613 10.20166016 174.84399414 C10.1611113 199.42128078 10.1611113 199.42128078 7 209.3125 C6.63777344 210.47652344 6.27554688 211.64054688 5.90234375 212.83984375 C5.48662109 214.09474609 5.48662109 214.09474609 5.0625 215.375 C3.4125 215.705 1.7625 216.035 0.0625 216.375 C-6.85688318 203.73682477 -5.2516836 187.58247584 -5.19824219 173.59521484 C-5.18749837 170.2494911 -5.19820314 166.9043015 -5.2109375 163.55859375 C-5.21682124 153.00257807 -5.19319961 142.73631724 -2.9375 132.375 C-3.64817627 132.34994385 -4.35885254 132.3248877 -5.09106445 132.29907227 C-19.27529211 131.67452346 -32.54636311 125.07130332 -42.4375 115 C-43.0459375 114.33226562 -43.654375 113.66453125 -44.28125 112.9765625 C-45.95209478 111.13005821 -45.95209478 111.13005821 -48.9375 110.375 C-50.7265625 108.484375 -50.7265625 108.484375 -52.5625 106.125 C-53.47902344 104.97257812 -53.47902344 104.97257812 -54.4140625 103.796875 C-56.058384 101.18282543 -56.43086384 99.39704028 -56.9375 96.375 C-57.73615641 93.94665279 -58.57198433 91.53032843 -59.4375 89.125 C-59.8809375 87.88234375 -60.324375 86.6396875 -60.78125 85.359375 C-61.64546532 82.53240296 -61.64546532 82.53240296 -62.9375 81.375 C-64.58926011 60.56491344 -63.43252187 41.4980659 -49.8359375 24.79296875 C-47.60807408 22.23973009 -45.30860726 19.79524938 -42.9375 17.375 C-42.34582031 16.74722656 -41.75414062 16.11945313 -41.14453125 15.47265625 C-30.10831214 4.72878731 -14.98384621 -0.01640605 0 0 Z " fill="#981A59" transform="translate(402.9375,140.625)"/>
<path d="M0 0 C0.79792969 0.00563965 1.59585938 0.0112793 2.41796875 0.01708984 C8.12916213 0.13509936 12.98657036 0.65781228 18.125 3.3125 C18.91777344 3.7146875 19.71054687 4.116875 20.52734375 4.53125 C32.55854965 11.20495435 41.73933687 20.24678521 46 33.5 C49.05803796 46.2569039 48.03635071 58.70541369 41.4375 69.9375 C33.40533968 82.32461977 23.13294545 89.57384577 8.67578125 92.87109375 C-2.30481451 94.7712581 -15.17048145 92.80562371 -24.875 87.3125 C-35.90060525 78.80399434 -41.53358018 69.33675945 -45.875 56.3125 C-46.77582482 46.04309707 -47.16740679 35.42536294 -41.875 26.3125 C-41.4625 25.48878906 -41.05 24.66507813 -40.625 23.81640625 C-34.50111864 12.38632087 -24.72276039 5.33628333 -12.62890625 1.203125 C-8.32307071 0.1815532 -4.40616537 -0.03250754 0 0 Z " fill="#FEFCFD" transform="translate(404.875,161.6875)"/>
<path d="M0 0 C4.00521387 2.88747977 7.46370991 6.48991981 9.6875 10.9375 C10.20222399 16.57414961 10.47363214 21.39234372 7.875 26.5 C7.153125 27.304375 6.43125 28.10875 5.6875 28.9375 C4.883125 29.865625 4.883125 29.865625 4.0625 30.8125 C2.6875 31.9375 2.6875 31.9375 0.6875 31.9375 C0.3575 32.9275 0.0275 33.9175 -0.3125 34.9375 C-4.42865126 36.4743163 -8.99359938 36.47171941 -13.3125 35.9375 C-18.88941014 33.14904493 -22.67939826 28.97040323 -25.625 23.5 C-27.27763892 17.34016403 -26.27926968 12.64384655 -23.59375 7.0234375 C-18.28010383 -1.62743767 -9.19695242 -2.94996587 0 0 Z " fill="#089AB4" transform="translate(90.3125,303.0625)"/>
<path d="M0 0 C5.00230198 2.45567552 8.49851535 5.9970307 11 11 C11.62530722 16.60726309 11.62732685 21.75048869 8.375 26.52734375 C4.13888216 31.06432223 -0.95051278 32.30837606 -7 32.8125 C-11.77801821 32.6184688 -14.29880128 31.64131579 -17.75 28.3125 C-21.49654323 23.37955141 -21.93422334 19.03773498 -21.5234375 12.9609375 C-20.5832865 7.64276991 -18.28599981 5.19190226 -14.4375 1.625 C-9.57038192 -0.67581945 -5.29437994 -0.78113802 0 0 Z " fill="#FF3636" transform="translate(253,77)"/>
<path d="M0 0 C0.33 0 0.66 0 1 0 C1 28.71 1 57.42 1 87 C-0.32 86.34 -1.64 85.68 -3 85 C-6.63598809 73.56149483 -5.27225744 59.83148644 -5.20581055 48.00048828 C-5.18742366 44.6109267 -5.18530242 41.22163782 -5.18554688 37.83203125 C-5.18063451 35.65103933 -5.17480742 33.47004923 -5.16796875 31.2890625 C-5.16685593 30.28888092 -5.1657431 29.28869934 -5.16459656 28.25820923 C-5.11277004 20.52513625 -4.848568 12.92147488 -2.5 5.5 C-2.2421875 4.6646875 -1.984375 3.829375 -1.71875 2.96875 C-1 1 -1 1 0 0 Z " fill="#7F116A" transform="translate(403,266)"/>
<path d="M0 0 C1.22589844 0.01353516 1.22589844 0.01353516 2.4765625 0.02734375 C3.41628906 0.04474609 3.41628906 0.04474609 4.375 0.0625 C4.375 0.7225 4.375 1.3825 4.375 2.0625 C5.3340625 2.5265625 5.3340625 2.5265625 6.3125 3 C8.375 4.0625 8.375 4.0625 9.375 5.0625 C9.87198841 9.53539572 10.17257808 13.64073038 7.9375 17.625 C4.16627082 19.74056759 0.69661369 20.5260641 -3.625 20.0625 C-6.75440297 18.41339553 -9.02307782 16.26634436 -10.625 13.0625 C-11.01947548 8.88105989 -11.07535186 6.75303952 -8.75 3.1875 C-5.7202549 0.1577549 -4.16072533 -0.05943893 0 0 Z " fill="#8D55FF" transform="translate(423.625,357.9375)"/>
<path d="M0 0 C6.70431612 10.05647419 4.1038526 27.89368072 4.125 39.5625 C4.12959229 40.85140137 4.13418457 42.14030273 4.13891602 43.46826172 C4.11864867 56.24641816 4.04566525 68.76122651 0 81 C-0.33 81 -0.66 81 -1 81 C-1.02312359 70.58657075 -1.04091517 60.17314756 -1.05181217 49.75969791 C-1.05704097 44.92483173 -1.06413854 40.08998306 -1.07543945 35.25512695 C-1.08626847 30.5932288 -1.09227686 25.93134754 -1.09487724 21.26943779 C-1.09673147 19.48675712 -1.10035203 17.70407741 -1.10573006 15.92140388 C-1.11294069 13.4333404 -1.11399093 10.94534757 -1.11352539 8.45727539 C-1.11712067 7.71281158 -1.12071594 6.96834778 -1.12442017 6.20132446 C-1.11405216 1.11405216 -1.11405216 1.11405216 0 0 Z " fill="#BE2A41" transform="translate(409,272)"/>
<path d="M0 0 C0.66 0 1.32 0 2 0 C2 22.77 2 45.54 2 69 C1.34 68.67 0.68 68.34 0 68 C-1.09533854 61.17299686 -1.14652194 54.40137086 -1.1328125 47.5 C-1.13376923 46.42427734 -1.13472595 45.34855469 -1.13571167 44.24023438 C-1.13638871 41.97786398 -1.13456784 39.7154916 -1.13037109 37.453125 C-1.12501613 34.01037185 -1.13033237 30.56774914 -1.13671875 27.125 C-1.13605788 24.91666638 -1.13477655 22.70833284 -1.1328125 20.5 C-1.13483673 19.48099609 -1.13686096 18.46199219 -1.13894653 17.41210938 C-1.11985022 11.52775942 -0.75893925 5.83637098 0 0 Z " fill="#73167F" transform="translate(399,277)"/>
<path d="M0 0 C0.33 0.66 0.66 1.32 1 2 C0.67 2.66 0.34 3.32 0 4 C0.99 4.33 1.98 4.66 3 5 C2.67 5.33 2.34 5.66 2 6 C1.87494915 8.58549772 1.813952 11.14561411 1.79467773 13.73266602 C1.78477814 14.5423584 1.77487854 15.35205078 1.76467896 16.1862793 C1.73297013 18.87545805 1.70826965 21.5646545 1.68359375 24.25390625 C1.66303231 26.11336234 1.64203606 27.97281368 1.62062073 29.83226013 C1.56531634 34.73623815 1.5159441 39.64025893 1.46777344 44.54431152 C1.41761934 49.54455388 1.36190155 54.54473382 1.30664062 59.54492188 C1.19895679 69.36322799 1.09753468 79.18158819 1 89 C0.01 89.495 0.01 89.495 -1 90 C-1.02312228 78.41311598 -1.0409145 66.82623741 -1.05181217 55.23933506 C-1.05704125 49.85966238 -1.06413935 44.48000542 -1.07543945 39.1003418 C-1.08626745 33.91325157 -1.09227665 28.72617651 -1.09487724 23.53907585 C-1.09673165 21.5554372 -1.10035256 19.57179942 -1.10573006 17.58816719 C-1.11293932 14.81990864 -1.11399099 12.05171362 -1.11352539 9.28344727 C-1.11712067 8.45482681 -1.12071594 7.62620636 -1.12442017 6.7724762 C-1.11405216 1.11405216 -1.11405216 1.11405216 0 0 Z " fill="#A31849" transform="translate(407,267)"/>
<path d="M0 0 C1.9375 1.0625 1.9375 1.0625 3 3 C2.55555556 9.44444444 2.55555556 9.44444444 1 11 C-4.8410596 11.37086093 -4.8410596 11.37086093 -7 11 C-9 8 -9 8 -8.75 4.375 C-8.5025 3.26125 -8.255 2.1475 -8 1 C-5.20129973 -0.39935013 -3.09501208 -0.25265405 0 0 Z " fill="#FF4242" transform="translate(461,273)"/>
<path d="M0 0 C0.33 0 0.66 0 1 0 C1 28.71 1 57.42 1 87 C-0.32 86.34 -1.64 85.68 -3 85 C-2.67 83.68 -2.34 82.36 -2 81 C-1.67 81.66 -1.34 82.32 -1 83 C-1.00222061 81.97491837 -1.00444122 80.94983673 -1.00672913 79.89369202 C-1.02696041 70.2549304 -1.04197207 60.61617306 -1.05181217 50.97739506 C-1.05704103 46.02146078 -1.06413874 41.06554358 -1.07543945 36.10961914 C-1.08626822 31.33101164 -1.09227681 26.55242062 -1.09487724 21.7738018 C-1.09673151 19.94646381 -1.10035216 18.11912676 -1.10573006 16.29179573 C-1.11294036 13.74146671 -1.11399095 11.19120663 -1.11352539 8.64086914 C-1.11712067 7.87770386 -1.12071594 7.11453857 -1.12442017 6.32824707 C-1.11405216 1.11405216 -1.11405216 1.11405216 0 0 Z " fill="#8B1864" transform="translate(403,266)"/>
<path d="M0 0 C0.66 0.33 1.32 0.66 2 1 C-3.28 6.28 -8.56 11.56 -14 17 C-14.66 16.67 -15.32 16.34 -16 16 C-14.27538679 14.07906479 -12.54557391 12.163278 -10.8125 10.25 C-10.32974609 9.71117187 -9.84699219 9.17234375 -9.34960938 8.6171875 C-6.43837795 5.41287909 -3.47293499 2.6158121 0 0 Z " fill="#CDC9E4" transform="translate(220,254)"/>
<path d="M0 0 C1.79824219 0.00966797 1.79824219 0.00966797 3.6328125 0.01953125 C5.4890625 0.04466797 5.4890625 0.04466797 7.3828125 0.0703125 C8.64351563 0.07933594 9.90421875 0.08835938 11.203125 0.09765625 C14.3048829 0.12115442 17.40624902 0.15400916 20.5078125 0.1953125 C20.5078125 0.5253125 20.5078125 0.8553125 20.5078125 1.1953125 C19.78601807 1.22036865 19.06422363 1.2454248 18.32055664 1.27124023 C15.0702775 1.38682552 11.82031562 1.50972024 8.5703125 1.6328125 C7.43400391 1.67212891 6.29769531 1.71144531 5.12695312 1.75195312 C3.50756836 1.81479492 3.50756836 1.81479492 1.85546875 1.87890625 C0.85523682 1.91556396 -0.14499512 1.95222168 -1.17553711 1.98999023 C-3.45287938 1.94203091 -3.45287938 1.94203091 -4.4921875 3.1953125 C-7.16277601 3.33646411 -9.81650988 3.23778357 -12.4921875 3.1953125 C-12.4921875 2.8653125 -12.4921875 2.5353125 -12.4921875 2.1953125 C-8.16398277 0.54728725 -4.62233166 -0.04402221 0 0 Z " fill="#BD749E" transform="translate(396.4921875,140.8046875)"/>
<path d="M0 0 C1.22589844 0.01353516 1.22589844 0.01353516 2.4765625 0.02734375 C3.41628906 0.04474609 3.41628906 0.04474609 4.375 0.0625 C4.375 0.7225 4.375 1.3825 4.375 2.0625 C3.77171875 2.08828125 3.1684375 2.1140625 2.546875 2.140625 C-2.58800302 2.49625828 -2.58800302 2.49625828 -7.125 4.75 C-8.92681397 7.52779653 -9.32742275 9.7891502 -9.625 13.0625 C-9.955 13.0625 -10.285 13.0625 -10.625 13.0625 C-10.94970459 8.92251651 -11.0554413 6.72250999 -8.75 3.1875 C-5.7202549 0.1577549 -4.16072533 -0.05943893 0 0 Z " fill="#AD84FF" transform="translate(423.625,357.9375)"/>
<path d="M0 0 C0.66 0.33 1.32 0.66 2 1 C-2.62 5.62 -7.24 10.24 -12 15 C-12 10.09687565 -8.29800369 7.38658643 -5 4 C-3.37458956 2.61667196 -1.72614587 1.25537882 0 0 Z " fill="#E3CDE1" transform="translate(379,169)"/>
<path d="M0 0 C0.66 0.33 1.32 0.66 2 1 C-1.86364295 5.48717034 -5.74790208 9.87675353 -10 14 C-10.66 13.67 -11.32 13.34 -12 13 C-10.56354149 11.39490066 -9.12579294 9.79095576 -7.6875 8.1875 C-6.88699219 7.29417969 -6.08648437 6.40085937 -5.26171875 5.48046875 C-3.54775419 3.60073214 -1.82122396 1.77407253 0 0 Z " fill="#953B85" transform="translate(136,98)"/>
<path d="M0 0 C1.12894876 0.93274109 2.25300876 1.87140122 3.375 2.8125 C4.00148438 3.33457031 4.62796875 3.85664063 5.2734375 4.39453125 C7 6 7 6 9 9 C7.68 9.33 6.36 9.66 5 10 C4.16121545 8.71186658 3.32913217 7.41936744 2.5 6.125 C2.0359375 5.40570313 1.571875 4.68640625 1.09375 3.9453125 C0 2 0 2 0 0 Z " fill="#CDBADB" transform="translate(356,251)"/>
<path d="M0 0 C3.63559661 3.43361902 6.36113346 6.7973607 9 11 C8.01 11 7.02 11 6 11 C4.17578125 9.03125 4.17578125 9.03125 2.3125 6.5 C1.68988281 5.6646875 1.06726563 4.829375 0.42578125 3.96875 C-0.04472656 3.3190625 -0.51523437 2.669375 -1 2 C-0.67 1.34 -0.34 0.68 0 0 Z " fill="#8C63AF" transform="translate(348,240)"/>
<path d="M0 0 C0.66 0.33 1.32 0.66 2 1 C-0.31 3.64 -2.62 6.28 -5 9 C-5.33 8.34 -5.66 7.68 -6 7 C-4.02 4.69 -2.04 2.38 0 0 Z " fill="#2DA9BF" transform="translate(72,304)"/>
<path d="M0 0 C-1.49097658 3.7952131 -3.75700849 5.61042731 -7 8 C-4.18918919 0 -4.18918919 0 0 0 Z " fill="#FF6060" transform="translate(240,79)"/>
</svg>
